<svg width="450" height="300" viewBox="0 0 450 300" fill="none" xmlns="http://www.w3.org/2000/svg">
<path opacity="0.5" d="M224.121 298.769C285.979 298.769 336.125 291.094 336.125 281.627C336.125 272.159 285.979 264.485 224.121 264.485C162.262 264.485 112.116 272.159 112.116 281.627C112.116 291.094 162.262 298.769 224.121 298.769Z" fill="#DEE3F3"/>
<g opacity="0.45">
<path opacity="0.45" d="M197.219 103.24C197.22 103.432 197.235 103.623 197.263 103.813C197.235 103.623 197.22 103.432 197.219 103.24Z" fill="#6C63FF"/>
<path opacity="0.45" d="M253.622 90.9265C253.63 90.9777 253.641 91.0282 253.647 91.0799C253.641 91.0281 253.63 90.9777 253.622 90.9265Z" fill="#6C63FF"/>
<path opacity="0.45" d="M253.504 90.4188C253.52 90.472 253.536 90.5254 253.549 90.5794C253.536 90.5254 253.52 90.4721 253.504 90.4188Z" fill="#6C63FF"/>
<path opacity="0.45" d="M253.563 104.204C253.541 104.292 253.516 104.378 253.489 104.464C253.517 104.378 253.541 104.292 253.563 104.204Z" fill="#6C63FF"/>
<path opacity="0.45" d="M253.642 103.783C253.629 103.876 253.614 103.969 253.595 104.061C253.614 103.969 253.629 103.877 253.642 103.783Z" fill="#6C63FF"/>
<path opacity="0.45" d="M199.827 107.153C199.451 106.974 199.103 106.751 198.791 106.489C199.103 106.751 199.451 106.974 199.827 107.153Z" fill="#6C63FF"/>
<path opacity="0.45" d="M198.753 106.458C198.606 106.333 198.468 106.199 198.339 106.059C198.468 106.199 198.606 106.333 198.753 106.458Z" fill="#6C63FF"/>
<path opacity="0.45" d="M281.986 190.733C281.929 190.558 281.86 190.387 281.78 190.22C281.86 190.387 281.929 190.558 281.986 190.733Z" fill="#6C63FF"/>
<path opacity="0.45" d="M279.576 188.075C279.768 188.166 279.952 188.268 280.128 188.381C279.952 188.268 279.768 188.166 279.576 188.075Z" fill="#6C63FF"/>
<path opacity="0.45" d="M280.66 188.779C280.956 189.032 281.216 189.319 281.434 189.631C281.216 189.319 280.956 189.032 280.66 188.779Z" fill="#6C63FF"/>
<path opacity="0.45" d="M280.145 188.393C280.306 188.498 280.459 188.611 280.605 188.732C280.459 188.611 280.306 188.497 280.145 188.393Z" fill="#6C63FF"/>
<path opacity="0.45" d="M281.738 190.141C281.666 189.998 281.585 189.859 281.495 189.724C281.585 189.859 281.666 189.998 281.738 190.141Z" fill="#6C63FF"/>
<path opacity="0.45" d="M282.119 191.277C282.093 191.13 282.059 190.985 282.016 190.841C282.059 190.985 282.093 191.13 282.119 191.277Z" fill="#6C63FF"/>
<path opacity="0.45" d="M428.095 167.096H400.245C400.889 166.69 401.414 166.148 401.777 165.517C402.14 164.885 402.329 164.183 402.329 163.471V151.821C402.329 151.241 402.204 150.667 401.96 150.131C401.717 149.596 401.36 149.109 400.91 148.699C400.46 148.289 399.926 147.964 399.338 147.742C398.75 147.52 398.12 147.406 397.484 147.406H365.429C366.408 147.121 367.262 146.56 367.869 145.804C368.475 145.048 368.802 144.136 368.802 143.2V131.55C368.802 130.838 368.613 130.135 368.25 129.504C367.887 128.873 367.361 128.331 366.718 127.925H397.484C398.12 127.925 398.75 127.811 399.338 127.589C399.926 127.367 400.46 127.042 400.91 126.632C401.36 126.222 401.717 125.736 401.96 125.2C402.204 124.664 402.329 124.09 402.329 123.51V111.861C402.329 111.281 402.204 110.707 401.96 110.171C401.717 109.635 401.36 109.149 400.91 108.739C400.46 108.329 399.926 108.004 399.338 107.782C398.75 107.56 398.12 107.446 397.484 107.446H363.236C364.215 107.161 365.07 106.6 365.676 105.844C366.282 105.088 366.609 104.176 366.609 103.24V91.5902C366.609 90.8775 366.42 90.1753 366.057 89.544C365.694 88.9126 365.169 88.3709 364.525 87.9651H397.484C398.12 87.9651 398.75 87.8509 399.338 87.6291C399.926 87.4072 400.46 87.082 400.91 86.672C401.36 86.2621 401.717 85.7754 401.96 85.2397C402.204 84.7041 402.329 84.13 402.329 83.5502V71.9004C402.329 71.3207 402.204 70.7466 401.96 70.2109C401.717 69.6753 401.36 69.1886 400.91 68.7787C400.46 68.3687 399.926 68.0435 399.338 67.8216C398.75 67.5998 398.12 67.4856 397.484 67.4856H380.23C381.209 67.2009 382.063 66.64 382.67 65.884C383.276 65.1281 383.603 64.2161 383.603 63.2798V51.63C383.603 51.0502 383.478 50.4762 383.234 49.9405C382.991 49.4049 382.634 48.9182 382.184 48.5082C381.734 48.0982 381.2 47.773 380.612 47.5512C380.024 47.3293 379.394 47.2151 378.758 47.2151H331.985C331.348 47.2151 330.718 47.3293 330.13 47.5512C329.543 47.773 329.008 48.0982 328.559 48.5082C328.109 48.9182 327.752 49.4049 327.508 49.9405C327.265 50.4761 327.139 51.0502 327.139 51.63C327.139 51.0502 327.014 50.4762 326.771 49.9405C326.527 49.4049 326.17 48.9182 325.72 48.5082C325.27 48.0982 324.736 47.773 324.148 47.5512C323.561 47.3293 322.93 47.2151 322.294 47.2151H275.521C274.598 47.2155 273.694 47.4564 272.916 47.9093C272.139 48.3622 271.519 49.0083 271.131 49.7715C271.193 50.0545 271.224 50.3424 271.224 50.631V62.2808C271.224 62.922 271.069 63.5554 270.771 64.1363C270.989 65.1422 271.585 66.0472 272.457 66.6957H284.469C285.588 66.6943 286.673 67.0475 287.538 67.6947H292.775C291.796 67.9794 290.942 68.5403 290.335 69.2962C289.729 70.0522 289.403 70.9642 289.402 71.9004C289.401 71.6196 289.371 71.3395 289.312 71.0639C289.312 71.0797 289.314 71.0948 289.314 71.1106V82.7603C289.313 83.1319 289.26 83.5018 289.156 83.8612C289.234 83.9362 289.304 84.0178 289.364 84.1049C289.39 83.9209 289.402 83.7356 289.402 83.5502C289.405 83.8062 289.432 84.0615 289.484 84.3132C289.548 84.4536 289.584 84.6032 289.592 84.7552C289.898 85.7368 290.567 86.5919 291.486 87.1752H287.319C287.356 87.1516 287.389 87.1231 287.426 87.0985C287.039 87.1073 286.649 87.0688 286.262 87.0647C286.123 87.0632 285.987 87.0374 285.859 86.9887C285.408 87.1122 284.94 87.175 284.469 87.1752L255.766 87.9651C255.123 88.3708 254.597 88.9126 254.234 89.544C253.871 90.1753 253.682 90.8774 253.682 91.5901V103.24C253.682 104.176 254.009 105.088 254.615 105.844C255.222 106.6 256.076 107.161 257.055 107.446L284.469 107.655C284.951 107.655 285.431 107.72 285.891 107.849C286.197 107.873 286.5 107.922 286.797 107.994C286.82 107.989 286.843 107.988 286.866 107.983C286.599 107.85 286.319 107.74 286.03 107.655H292.775C291.796 107.94 290.942 108.5 290.335 109.256C289.729 110.012 289.402 110.924 289.402 111.861C289.402 111.605 289.377 111.349 289.328 111.097C289.296 111.139 289.261 111.179 289.222 111.216C289.283 111.497 289.314 111.783 289.314 112.07V123.719C289.314 124.26 289.402 124.13 289.402 123.51C289.402 124.223 289.592 124.925 289.954 125.557C290.317 126.188 290.843 126.73 291.486 127.135L308.589 127.635C309.176 127.636 309.758 127.734 310.306 127.925H314.422C313.685 128.395 313.106 129.041 312.747 129.792C313.197 130.474 313.435 131.254 313.435 132.05V143.7C313.435 144.308 313.297 144.909 313.028 145.466C313.635 146.388 314.588 147.077 315.711 147.406H311.217C310.435 147.869 309.522 148.115 308.589 148.114H291.622C290.941 148.514 290.381 149.062 289.993 149.71C289.606 150.357 289.402 151.083 289.402 151.821C289.402 150.265 288.766 165.597 288.766 165.597C288.766 166.974 315.168 167.595 315.168 167.595C315.839 167.595 316.502 167.722 317.116 167.969C317.391 167.916 317.673 167.894 317.955 167.903C317.946 167.898 317.938 167.891 317.929 167.885H322.097C321.453 168.291 320.928 168.833 320.565 169.464C320.202 170.096 320.013 170.798 320.013 171.51C320.012 171.3 319.994 171.089 319.96 170.881C319.937 170.929 319.913 170.976 319.887 171.022C319.97 171.346 320.012 171.677 320.013 172.01V183.16C320.013 183.74 320.138 184.314 320.382 184.85C320.625 185.385 320.982 185.872 321.432 186.282C321.882 186.692 322.416 187.017 323.004 187.239C323.592 187.461 324.222 187.575 324.858 187.575H317.401C316.712 187.903 315.946 188.075 315.168 188.075H284.8C284.013 188.447 283.353 189.009 282.892 189.699C282.432 190.39 282.188 191.182 282.188 191.99V203.64C282.188 204.22 282.313 204.794 282.557 205.329C282.8 205.865 283.157 206.352 283.607 206.762C284.057 207.172 284.591 207.497 285.179 207.719C285.767 207.941 286.397 208.055 287.033 208.055H333.806C334.442 208.055 335.072 207.941 335.66 207.719C336.248 207.497 336.782 207.172 337.232 206.762C337.682 206.352 338.039 205.865 338.283 205.329C338.526 204.794 338.651 204.22 338.651 203.64C338.651 204.22 338.777 204.794 339.02 205.329C339.264 205.865 339.621 206.352 340.07 206.762C340.52 207.172 341.055 207.497 341.642 207.719C342.23 207.941 342.86 208.055 343.497 208.055H390.27C390.906 208.055 391.536 207.941 392.124 207.719C392.712 207.497 393.246 207.172 393.696 206.762C394.146 206.352 394.502 205.865 394.746 205.329C394.989 204.794 395.115 204.22 395.115 203.64V191.99C395.115 191.41 394.989 190.836 394.746 190.301C394.502 189.765 394.146 189.278 393.696 188.868C393.246 188.458 392.712 188.133 392.124 187.911C391.536 187.689 390.906 187.575 390.27 187.575H428.095C428.731 187.575 429.361 187.461 429.949 187.239C430.537 187.017 431.071 186.692 431.521 186.282C431.971 185.872 432.327 185.385 432.571 184.85C432.814 184.314 432.94 183.74 432.94 183.16V171.51C432.94 170.931 432.814 170.357 432.571 169.821C432.327 169.285 431.971 168.799 431.521 168.389C431.071 167.979 430.537 167.653 429.949 167.432C429.361 167.21 428.731 167.096 428.095 167.096ZM312.229 87.9651C311.586 88.3709 311.061 88.9126 310.698 89.544C310.335 90.1754 310.145 90.8775 310.146 91.5902C310.146 90.8775 309.956 90.1754 309.593 89.544C309.231 88.9126 308.705 88.3709 308.062 87.9651H312.229ZM306.773 107.446C307.752 107.161 308.606 106.6 309.212 105.844C309.819 105.088 310.145 104.176 310.146 103.24C310.146 104.176 310.473 105.088 311.079 105.844C311.685 106.6 312.539 107.161 313.518 107.446H306.773ZM323.767 67.4856C324.746 67.2009 325.6 66.64 326.206 65.884C326.812 65.1281 327.139 64.2161 327.139 63.2798C327.14 64.2161 327.466 65.1281 328.073 65.884C328.679 66.64 329.533 67.2009 330.512 67.4856H323.767ZM338.651 191.99C338.651 191.41 338.526 190.836 338.283 190.301C338.039 189.765 337.682 189.278 337.232 188.868C336.782 188.458 336.248 188.133 335.66 187.911C335.073 187.689 334.442 187.575 333.806 187.575H343.497C342.86 187.575 342.23 187.689 341.642 187.911C341.055 188.133 340.52 188.458 340.07 188.868C339.621 189.278 339.264 189.765 339.02 190.301C338.777 190.836 338.651 191.41 338.651 191.99ZM343.782 167.096C344.425 166.69 344.951 166.148 345.314 165.517C345.676 164.885 345.866 164.183 345.866 163.471C345.865 164.183 346.055 164.885 346.418 165.517C346.781 166.148 347.306 166.69 347.949 167.096H343.782ZM345.866 151.821C345.865 150.884 345.539 149.973 344.932 149.217C344.326 148.461 343.472 147.9 342.493 147.615H349.238C348.259 147.9 347.405 148.461 346.799 149.217C346.193 149.973 345.866 150.884 345.866 151.821ZM343.782 127.135C344.425 126.73 344.951 126.188 345.314 125.557C345.676 124.925 345.866 124.223 345.866 123.51C345.865 124.223 346.055 124.925 346.418 125.557C346.781 126.188 347.306 126.73 347.949 127.135H343.782ZM345.866 111.861C345.865 110.924 345.539 110.012 344.932 109.256C344.326 108.5 343.472 107.94 342.493 107.655H349.238C348.259 107.94 347.405 108.5 346.799 109.256C346.193 110.012 345.866 110.924 345.866 111.861ZM343.782 87.1753C344.425 86.7695 344.951 86.2278 345.314 85.5964C345.676 84.9651 345.866 84.2629 345.866 83.5502C345.865 84.2629 346.055 84.9651 346.418 85.5964C346.781 86.2278 347.306 86.7696 347.949 87.1753H343.782ZM345.866 71.9004C345.865 70.9642 345.539 70.0522 344.932 69.2962C344.326 68.5403 343.472 67.9794 342.493 67.6947H349.238C348.259 67.9794 347.405 68.5403 346.799 69.2962C346.193 70.0522 345.866 70.9642 345.866 71.9004ZM378.56 167.885C377.917 168.291 377.391 168.833 377.028 169.464C376.666 170.096 376.476 170.798 376.476 171.51C376.477 170.798 376.287 170.096 375.924 169.464C375.561 168.833 375.036 168.291 374.393 167.885H378.56ZM371.631 187.575C372.267 187.575 372.898 187.461 373.485 187.239C374.073 187.017 374.607 186.692 375.057 186.282C375.507 185.872 375.864 185.385 376.108 184.85C376.351 184.314 376.476 183.74 376.476 183.16C376.476 183.74 376.602 184.314 376.845 184.85C377.089 185.385 377.446 185.872 377.896 186.282C378.345 186.692 378.88 187.017 379.467 187.239C380.055 187.461 380.685 187.575 381.322 187.575H371.631Z" fill="#6C63FF"/>
<path opacity="0.45" d="M282.188 191.99C282.186 191.802 282.172 191.614 282.144 191.428C282.172 191.614 282.186 191.802 282.188 191.99Z" fill="#6C63FF"/>
<path opacity="0.45" d="M253.682 103.24C253.682 103.38 253.673 103.518 253.659 103.654C253.673 103.518 253.682 103.38 253.682 103.24Z" fill="#6C63FF"/>
<path opacity="0.45" d="M197.275 103.898C197.304 104.075 197.345 104.251 197.399 104.423C197.345 104.251 197.304 104.075 197.275 103.898Z" fill="#6C63FF"/>
<path opacity="0.45" d="M143.052 129.929C142.972 129.864 142.902 129.789 142.846 129.705C142.776 129.591 142.729 129.466 142.708 129.337C142.696 129.64 142.701 129.943 142.723 130.245C142.87 130.667 142.946 131.107 142.948 131.55C142.95 131.12 143.022 130.692 143.161 130.28C143.117 130.18 143.082 130.077 143.058 129.972C143.055 129.957 143.055 129.943 143.052 129.929Z" fill="#6C63FF"/>
<path opacity="0.45" d="M209.367 47.2151H162.594C161.958 47.2151 161.328 47.3293 160.74 47.5512C160.152 47.773 159.618 48.0982 159.168 48.5082C158.718 48.9182 158.362 49.4049 158.118 49.9405C157.875 50.4761 157.749 51.0502 157.749 51.63C157.749 51.0502 157.624 50.4761 157.38 49.9405C157.137 49.4049 156.78 48.9182 156.33 48.5082C155.88 48.0982 155.346 47.773 154.758 47.5512C154.17 47.3293 153.54 47.2151 152.904 47.2151H106.131C105.495 47.2151 104.865 47.3293 104.277 47.5512C103.689 47.773 103.155 48.0982 102.705 48.5082C102.255 48.9182 101.898 49.4049 101.655 49.9405C101.411 50.4761 101.286 51.0502 101.286 51.63V63.2798C101.286 64.2161 101.613 65.1281 102.219 65.884C102.825 66.64 103.68 67.2009 104.658 67.4856H68.394C67.7577 67.4856 67.1276 67.5998 66.5398 67.8216C65.9519 68.0435 65.4178 68.3687 64.9679 68.7786C64.5179 69.1886 64.1611 69.6753 63.9176 70.2109C63.6741 70.7466 63.5487 71.3207 63.5487 71.9004V83.5502C63.5485 84.2629 63.738 84.9651 64.1009 85.5964C64.4637 86.2278 64.9892 86.7696 65.6323 87.1753H32.6738C32.0376 87.1753 31.4075 87.2895 30.8196 87.5113C30.2318 87.7332 29.6977 88.0584 29.2477 88.4684C28.7978 88.8783 28.4409 89.365 28.1974 89.9007C27.9539 90.4363 27.8286 91.0104 27.8286 91.5902V103.24C27.8286 103.82 27.9539 104.394 28.1974 104.929C28.4409 105.465 28.7978 105.952 29.2477 106.362C29.6977 106.772 30.2318 107.097 30.8197 107.319C31.4075 107.541 32.0376 107.655 32.6738 107.655H66.9212C65.9423 107.94 65.0881 108.5 64.4819 109.256C63.8757 110.012 63.549 110.924 63.5487 111.861V123.51C63.5485 124.223 63.738 124.925 64.1009 125.557C64.4637 126.188 64.9893 126.73 65.6323 127.135H34.8666C34.2303 127.135 33.6002 127.25 33.0124 127.471C32.4245 127.693 31.8904 128.019 31.4405 128.429C30.9906 128.838 30.6337 129.325 30.3902 129.861C30.1467 130.396 30.0214 130.971 30.0214 131.55V143.2C30.0214 143.78 30.1467 144.354 30.3902 144.89C30.6337 145.425 30.9906 145.912 31.4405 146.322C31.8904 146.732 32.4246 147.057 33.0124 147.279C33.6003 147.501 34.2303 147.615 34.8666 147.615H66.9212C65.9423 147.9 65.0881 148.461 64.4819 149.217C63.8757 149.973 63.5489 150.884 63.5487 151.821V163.471C63.5487 164.05 63.6741 164.624 63.9176 165.16C64.161 165.696 64.5179 166.182 64.9679 166.592C65.4178 167.002 65.9519 167.328 66.5398 167.549C67.1276 167.771 67.7577 167.885 68.394 167.885H96.2429C95.5999 168.291 95.0744 168.833 94.7115 169.464C94.3486 170.096 94.1592 170.798 94.1594 171.51V183.16C94.1594 184.331 94.6699 185.454 95.5785 186.282C96.4872 187.11 97.7196 187.575 99.0046 187.575H61.1796C60.5434 187.575 59.9133 187.689 59.3254 187.911C58.7376 188.133 58.2035 188.458 57.7535 188.868C57.3036 189.278 56.9467 189.765 56.7032 190.301C56.4597 190.836 56.3344 191.41 56.3344 191.99V203.64C56.3344 204.22 56.4597 204.794 56.7032 205.329C56.9467 205.865 57.3036 206.352 57.7535 206.762C58.2035 207.172 58.7376 207.497 59.3255 207.719C59.9133 207.941 60.5434 208.055 61.1796 208.055H107.953C108.589 208.055 109.219 207.941 109.807 207.719C110.395 207.497 110.929 207.172 111.379 206.762C111.829 206.352 112.186 205.865 112.429 205.329C112.672 204.794 112.798 204.22 112.798 203.64C112.798 204.22 112.923 204.794 113.167 205.329C113.41 205.865 113.767 206.352 114.217 206.762C114.667 207.172 115.201 207.497 115.789 207.719C116.377 207.941 117.007 208.055 117.643 208.055H164.416C165.052 208.055 165.682 207.941 166.27 207.719C166.858 207.497 167.392 207.172 167.842 206.762C168.292 206.352 168.649 205.865 168.892 205.329C169.136 204.794 169.261 204.22 169.261 203.64V191.99C169.261 191.182 169.017 190.39 168.557 189.699C168.096 189.009 167.437 188.447 166.65 188.075H156.564C155.787 188.075 155.02 187.903 154.331 187.575H145.778C147.063 187.575 148.295 187.11 149.204 186.282C150.112 185.454 150.623 184.331 150.623 183.16C150.623 185.081 151.719 172.01 151.719 172.01C151.719 171.43 151.845 170.856 152.088 170.32C152.331 169.785 152.688 169.298 153.138 168.888C153.588 168.478 154.122 168.153 154.71 167.931C155.298 167.709 155.928 167.595 156.564 167.595L174.392 167.096C174.9 166.771 175.336 166.361 175.676 165.888C175.423 165.348 175.293 164.766 175.291 164.179V152.529C175.29 151.665 175.569 150.82 176.093 150.1C175.712 149.286 175.072 148.594 174.255 148.115H148.89C147.957 148.115 147.045 147.869 146.263 147.406H139.576C140.555 147.121 141.409 146.56 142.015 145.804C142.621 145.048 142.948 144.136 142.948 143.2L142.776 131.635C142.776 131.114 142.746 130.653 142.723 130.245C142.404 129.305 141.75 128.489 140.865 127.925H145.032C145 127.945 144.973 127.969 144.942 127.99C147.304 127.866 174.288 126.424 176.482 124.815C176.426 124.51 176.415 124.199 176.449 123.891C176.41 123.669 176.39 123.445 176.388 123.22V111.57C176.388 111.426 176.396 111.283 176.411 111.142C176.265 110.34 175.879 109.59 175.296 108.974C174.712 108.359 173.953 107.903 173.103 107.655H178.999C179.689 107.327 180.455 107.155 181.233 107.155H194.607C195.394 106.783 196.054 106.221 196.515 105.531C196.975 104.84 197.219 104.048 197.219 103.24V91.5902C197.219 90.8775 197.03 90.1754 196.667 89.544C196.304 88.9126 195.778 88.3709 195.135 87.9651L181.233 87.1753C178.877 87.1753 177.318 86.389 178.559 87.1753H174.392C175.031 86.7719 175.553 86.2343 175.916 85.6078C176.278 84.9813 176.47 84.2845 176.474 83.5763C176.417 83.3073 176.389 83.0342 176.388 82.7604V71.1106C176.388 71.101 176.389 71.0918 176.389 71.0823C176.227 70.3004 175.836 69.5729 175.258 68.9766C174.679 68.3804 173.935 67.9375 173.103 67.6947H178.164C179.029 67.0475 180.114 66.6943 181.233 66.6957H212.432C212.989 66.2827 213.437 65.7618 213.745 65.1709C214.053 64.58 214.213 63.934 214.213 63.2798V51.63C214.213 51.0502 214.087 50.4762 213.844 49.9405C213.6 49.4049 213.243 48.9182 212.794 48.5082C212.344 48.0983 211.809 47.7731 211.222 47.5512C210.634 47.3293 210.004 47.2151 209.367 47.2151ZM86.3755 87.9651C85.7325 88.3709 85.207 88.9126 84.8441 89.544C84.4813 90.1754 84.2918 90.8775 84.292 91.5902C84.2922 90.8775 84.1028 90.1754 83.7399 89.544C83.377 88.9126 82.8515 88.3709 82.2085 87.9651H86.3755ZM84.292 103.24C84.2922 104.176 84.619 105.088 85.2252 105.844C85.8314 106.6 86.6856 107.161 87.6645 107.446H80.9195C81.8984 107.161 82.7526 106.6 83.3588 105.844C83.965 105.088 84.2918 104.176 84.292 103.24ZM88.5683 127.925C87.9252 128.331 87.3998 128.873 87.0369 129.504C86.674 130.136 86.4845 130.838 86.4848 131.55C86.485 130.838 86.2955 130.136 85.9327 129.504C85.5698 128.873 85.0443 128.331 84.4012 127.925H88.5683ZM83.1123 147.406C84.0911 147.121 84.9454 146.56 85.5516 145.804C86.1578 145.048 86.4846 144.136 86.4848 143.2C86.485 144.136 86.8118 145.048 87.418 145.804C88.0242 146.56 88.8784 147.121 89.8573 147.406H83.1123ZM142.839 87.9651C142.196 88.3709 141.67 88.9126 141.308 89.544C140.945 90.1754 140.755 90.8775 140.755 91.5902C140.756 90.8775 140.566 90.1754 140.203 89.544C139.84 88.9126 139.315 88.3709 138.672 87.9651H142.839ZM112.798 191.99C112.798 191.41 112.672 190.836 112.429 190.301C112.186 189.765 111.829 189.278 111.379 188.868C110.929 188.458 110.395 188.133 109.807 187.911C109.219 187.689 108.589 187.575 107.953 187.575H117.643C117.007 187.575 116.377 187.689 115.789 187.911C115.201 188.133 114.667 188.458 114.217 188.868C113.767 189.278 113.41 189.765 113.167 190.301C112.923 190.836 112.798 191.41 112.798 191.99ZM117.929 167.096C118.572 166.69 119.097 166.148 119.46 165.517C119.823 164.885 120.012 164.183 120.012 163.471C120.012 164.183 120.201 164.885 120.564 165.517C120.927 166.148 121.453 166.69 122.096 167.096H117.929ZM120.012 151.821C120.012 150.884 119.685 149.973 119.079 149.217C118.473 148.461 117.619 147.9 116.64 147.615H123.385C122.406 147.9 121.552 148.461 120.945 149.217C120.339 149.973 120.012 150.884 120.012 151.821ZM117.929 127.135C118.572 126.73 119.097 126.188 119.46 125.557C119.823 124.925 120.012 124.223 120.012 123.51C120.012 124.223 120.201 124.925 120.564 125.557C120.927 126.188 121.453 126.73 122.096 127.135H117.929ZM120.012 111.861C120.012 110.924 119.685 110.012 119.079 109.256C118.473 108.5 117.619 107.94 116.64 107.655H123.385C122.406 107.94 121.552 108.5 120.945 109.256C120.339 110.012 120.012 110.924 120.012 111.861ZM117.929 87.1753C118.572 86.7696 119.097 86.2278 119.46 85.5964C119.823 84.9651 120.012 84.2629 120.012 83.5502C120.012 84.2629 120.201 84.9651 120.564 85.5964C120.927 86.2278 121.453 86.7696 122.096 87.1753H117.929ZM120.012 71.9004C120.012 70.9642 119.685 70.0522 119.079 69.2962C118.473 68.5403 117.619 67.9794 116.64 67.6947H123.385C122.406 67.9794 121.552 68.5403 120.945 69.2962C120.339 70.0522 120.012 70.9642 120.012 71.9004ZM137.383 107.446C138.362 107.161 139.216 106.6 139.822 105.844C140.428 105.088 140.755 104.176 140.755 103.24C140.756 104.176 141.082 105.088 141.689 105.844C142.295 106.6 143.149 107.161 144.128 107.446H137.383ZM154.377 67.4856C155.356 67.2009 156.21 66.64 156.816 65.8841C157.422 65.1281 157.749 64.2161 157.749 63.2798C157.749 64.2161 158.076 65.1281 158.682 65.8841C159.289 66.64 160.143 67.2009 161.122 67.4856H154.377Z" fill="#6C63FF"/>
<path opacity="0.45" d="M198.811 88.3246C198.834 88.3056 198.857 88.2862 198.88 88.2676C198.857 88.2862 198.834 88.3055 198.811 88.3246Z" fill="#6C63FF"/>
<path opacity="0.45" d="M198.49 88.6171C198.466 88.6409 198.442 88.6643 198.418 88.6885C198.442 88.6642 198.466 88.6408 198.49 88.6171Z" fill="#6C63FF"/>
<path opacity="0.45" d="M198.083 89.0768C198.094 89.0623 198.107 89.0489 198.118 89.0346C198.107 89.0489 198.094 89.0623 198.083 89.0768Z" fill="#6C63FF"/>
<path opacity="0.45" d="M197.427 104.513C197.483 104.685 197.551 104.854 197.63 105.018C197.551 104.854 197.483 104.685 197.427 104.513Z" fill="#6C63FF"/>
<path opacity="0.45" d="M197.944 105.562C198.053 105.72 198.172 105.872 198.302 106.016C198.172 105.872 198.053 105.72 197.944 105.562Z" fill="#6C63FF"/>
<path opacity="0.45" d="M197.654 105.064C197.738 105.234 197.834 105.399 197.941 105.557C197.834 105.399 197.738 105.234 197.654 105.064Z" fill="#6C63FF"/>
<path opacity="0.45" d="M197.351 90.5794C197.365 90.5254 197.381 90.472 197.397 90.4188C197.38 90.4721 197.365 90.5254 197.351 90.5794Z" fill="#6C63FF"/>
<path opacity="0.45" d="M197.515 90.0819C197.533 90.0379 197.549 89.9935 197.568 89.9502C197.549 89.9935 197.533 90.0379 197.515 90.0819Z" fill="#6C63FF"/>
<path opacity="0.45" d="M197.254 91.0799C197.26 91.0282 197.271 90.9777 197.279 90.9265C197.271 90.9777 197.26 91.0281 197.254 91.0799Z" fill="#6C63FF"/>
<path opacity="0.45" d="M197.782 89.5267C197.785 89.5216 197.787 89.5162 197.79 89.5111C197.787 89.5162 197.785 89.5216 197.782 89.5267Z" fill="#6C63FF"/>
<path opacity="0.1" d="M105.701 67.6947H154.43C156.566 67.6947 158.297 66.1171 158.297 64.1711V50.7387C158.297 48.7927 156.566 47.2151 154.43 47.2151L105.701 47.2151C103.565 47.2151 101.834 48.7927 101.834 50.7387V64.1711C101.834 66.1171 103.565 67.6947 105.701 67.6947Z" fill="black"/>
<path opacity="0.1" d="M274.543 67.6947H323.272C325.408 67.6947 327.139 66.1171 327.139 64.1711V50.7387C327.139 48.7927 325.408 47.2151 323.272 47.2151L274.543 47.2151C272.407 47.2151 270.676 48.7927 270.676 50.7387V64.1711C270.676 66.1171 272.407 67.6947 274.543 67.6947Z" fill="black"/>
<path opacity="0.1" d="M349.645 87.6748H398.374C400.51 87.6748 402.241 86.0972 402.241 84.1512V70.7188C402.241 68.7728 400.51 67.1952 398.374 67.1952H349.645C347.509 67.1952 345.778 68.7728 345.778 70.7188V84.1512C345.778 86.0972 347.509 87.6748 349.645 87.6748Z" fill="black"/>
<path opacity="0.1" d="M257.549 107.655H306.278C308.414 107.655 310.146 106.077 310.146 104.131V90.6989C310.146 88.7529 308.414 87.1753 306.278 87.1753H257.549C255.413 87.1753 253.682 88.7529 253.682 90.6989V104.131C253.682 106.077 255.413 107.655 257.549 107.655Z" fill="black"/>
<path opacity="0.1" d="M349.645 128.134H398.374C400.51 128.134 402.241 126.557 402.241 124.611V111.178C402.241 109.232 400.51 107.655 398.374 107.655H349.645C347.509 107.655 345.778 109.232 345.778 111.178V124.611C345.778 126.557 347.509 128.134 349.645 128.134Z" fill="black"/>
<path opacity="0.1" d="M349.645 168.095H398.374C400.51 168.095 402.241 166.517 402.241 164.571V151.139C402.241 149.193 400.51 147.615 398.374 147.615H349.645C347.509 147.615 345.778 149.193 345.778 151.139V164.571C345.778 166.517 347.509 168.095 349.645 168.095Z" fill="black"/>
<path opacity="0.1" d="M372.949 167.595H323.541C322.778 167.595 322.036 167.821 321.425 168.238C320.815 168.655 320.37 169.241 320.156 169.908C320.169 170.09 320.156 170.272 320.116 170.45C320.091 170.555 320.057 170.658 320.016 170.758C320.015 170.775 320.013 170.792 320.013 170.809V184.86C320.013 185.713 320.385 186.53 321.046 187.133C321.708 187.736 322.605 188.075 323.541 188.075H372.949C373.884 188.075 374.782 187.736 375.443 187.133C376.105 186.53 376.476 185.713 376.476 184.86V170.809C376.476 170.387 376.385 169.969 376.208 169.579C376.031 169.189 375.771 168.835 375.443 168.537C375.116 168.238 374.727 168.001 374.299 167.84C373.871 167.678 373.412 167.595 372.949 167.595Z" fill="black"/>
<path opacity="0.1" d="M286.055 208.055H334.784C336.92 208.055 338.651 206.477 338.651 204.531V191.099C338.651 189.153 336.92 187.575 334.784 187.575H286.055C283.919 187.575 282.188 189.153 282.188 191.099V204.531C282.188 206.477 283.919 208.055 286.055 208.055Z" fill="black"/>
<path opacity="0.1" d="M123.791 87.6748H172.521C174.656 87.6748 176.388 86.0972 176.388 84.1512V70.7188C176.388 68.7728 174.656 67.1952 172.521 67.1952H123.791C121.656 67.1952 119.924 68.7728 119.924 70.7188V84.1512C119.924 86.0972 121.656 87.6748 123.791 87.6748Z" fill="black"/>
<path opacity="0.1" d="M88.7072 107.655H137.437C139.572 107.655 141.304 106.077 141.304 104.131V90.6989C141.304 88.7529 139.572 87.1753 137.437 87.1753H88.7072C86.5715 87.1753 84.8402 88.7529 84.8402 90.6989V104.131C84.8402 106.077 86.5715 107.655 88.7072 107.655Z" fill="black"/>
<path opacity="0.1" d="M67.3278 128.134H116.057C118.193 128.134 119.924 126.557 119.924 124.611V111.178C119.924 109.232 118.193 107.655 116.057 107.655H67.3278C65.1921 107.655 63.4607 109.232 63.4607 111.178V124.611C63.4607 126.557 65.1921 128.134 67.3278 128.134Z" fill="black"/>
<path opacity="0.1" d="M90.3518 148.115H139.081C141.217 148.115 142.948 146.537 142.948 144.591V131.159C142.948 129.212 141.217 127.635 139.081 127.635H90.3518C88.216 127.635 86.4847 129.212 86.4847 131.159V144.591C86.4847 146.537 88.216 148.115 90.3518 148.115Z" fill="black"/>
<path opacity="0.1" d="M67.3278 168.095H116.057C118.193 168.095 119.924 166.517 119.924 164.571V151.139C119.924 149.193 118.193 147.615 116.057 147.615H67.3278C65.1921 147.615 63.4607 149.193 63.4607 151.139V164.571C63.4607 166.517 65.1921 168.095 67.3278 168.095Z" fill="black"/>
<path opacity="0.45" d="M41.7839 188.097H90.5132C92.6489 188.097 94.3802 186.519 94.3802 184.573V171.141C94.3802 169.195 92.6489 167.617 90.5132 167.617H41.7839C39.6482 167.617 37.9169 169.195 37.9169 171.141V184.573C37.9169 186.519 39.6482 188.097 41.7839 188.097Z" fill="#6C63FF"/>
<path opacity="0.45" d="M371.461 148.092H420.19C422.326 148.092 424.057 146.515 424.057 144.569V131.136C424.057 129.19 422.326 127.613 420.19 127.613H371.461C369.325 127.613 367.594 129.19 367.594 131.136V144.569C367.594 146.515 369.325 148.092 371.461 148.092Z" fill="#6C63FF"/>
<path opacity="0.45" d="M369.066 107.724H417.795C419.931 107.724 421.662 106.147 421.662 104.201V90.7683C421.662 88.8222 419.931 87.2447 417.795 87.2447H369.066C366.93 87.2447 365.199 88.8222 365.199 90.7683V104.201C365.199 106.147 366.93 107.724 369.066 107.724Z" fill="#6C63FF"/>
<path opacity="0.45" d="M397.404 207.735H446.133C448.269 207.735 450 206.158 450 204.212V190.779C450 188.833 448.269 187.256 446.133 187.256H397.404C395.268 187.256 393.537 188.833 393.537 190.779V204.212C393.537 206.158 395.268 207.735 397.404 207.735Z" fill="#6C63FF"/>
<path opacity="0.45" d="M3.86702 208.099H52.5963C54.732 208.099 56.4634 206.521 56.4634 204.575V191.143C56.4634 189.197 54.732 187.619 52.5963 187.619H3.86702C1.73132 187.619 -1.90735e-05 189.197 -1.90735e-05 191.143V204.575C-1.90735e-05 206.521 1.73132 208.099 3.86702 208.099Z" fill="#6C63FF"/>
<path opacity="0.45" d="M11.4504 167.731H60.1797C62.3154 167.731 64.0468 166.153 64.0468 164.207V150.775C64.0468 148.829 62.3154 147.251 60.1797 147.251H11.4504C9.31469 147.251 7.58335 148.829 7.58335 150.775V164.207C7.58335 166.153 9.31469 167.731 11.4504 167.731Z" fill="#6C63FF"/>
<path opacity="0.45" d="M11.4504 128.09H60.1797C62.3154 128.09 64.0468 126.513 64.0468 124.567V111.134C64.0468 109.188 62.3154 107.611 60.1797 107.611H11.4504C9.31469 107.611 7.58335 109.188 7.58335 111.134V124.567C7.58335 126.513 9.31469 128.09 11.4504 128.09Z" fill="#6C63FF"/>
<path opacity="0.45" d="M13.4459 87.722H62.1753C64.311 87.722 66.0423 86.1445 66.0423 84.1984V70.7661C66.0423 68.82 64.311 67.2425 62.1753 67.2425H13.4459C11.3102 67.2425 9.5789 68.82 9.5789 70.7661V84.1984C9.5789 86.1445 11.3102 87.722 13.4459 87.722Z" fill="#6C63FF"/>
<path opacity="0.1" d="M13.4459 87.722H62.1753C64.311 87.722 66.0423 86.1445 66.0423 84.1984V70.7661C66.0423 68.82 64.311 67.2425 62.1753 67.2425H13.4459C11.3102 67.2425 9.5789 68.82 9.5789 70.7661V84.1984C9.5789 86.1445 11.3102 87.722 13.4459 87.722Z" fill="black"/>
<path opacity="0.45" d="M49.3673 67.7198H98.0966C100.232 67.7198 101.964 66.1423 101.964 64.1962V50.7638C101.964 48.8178 100.232 47.2402 98.0966 47.2402L49.3673 47.2402C47.2316 47.2402 45.5002 48.8178 45.5002 50.7638V64.1962C45.5002 66.1423 47.2316 67.7198 49.3673 67.7198Z" fill="#6C63FF"/>
<path opacity="0.1" d="M98.5746 188.075H147.304C149.44 188.075 151.171 186.497 151.171 184.551V171.119C151.171 169.173 149.44 167.595 147.304 167.595H98.5746C96.4388 167.595 94.7075 169.173 94.7075 171.119V184.551C94.7075 186.497 96.4388 188.075 98.5746 188.075Z" fill="black"/>
<path opacity="0.1" d="M60.2013 208.055H108.931C111.066 208.055 112.798 206.477 112.798 204.531V191.099C112.798 189.153 111.066 187.575 108.931 187.575H60.2013C58.0656 187.575 56.3343 189.153 56.3343 191.099V204.531C56.3343 206.477 58.0656 208.055 60.2013 208.055Z" fill="black"/>
</g>
<path opacity="0.5" d="M354.535 23.0587C361.523 23.0587 367.189 17.8969 367.189 11.5294C367.189 5.16188 361.523 0 354.535 0C347.547 0 341.882 5.16188 341.882 11.5294C341.882 17.8969 347.547 23.0587 354.535 23.0587Z" fill="#6C63FF"/>
<path opacity="0.5" d="M110.228 32.4325H107.217C107.494 32.4332 107.769 32.3841 108.026 32.2879C108.282 32.1917 108.515 32.0504 108.711 31.872C108.908 31.6937 109.063 31.4818 109.17 31.2484C109.276 31.0151 109.331 30.765 109.331 30.5123C109.331 30.2597 109.276 30.0096 109.17 29.7763C109.063 29.5429 108.908 29.331 108.711 29.1526C108.515 28.9743 108.282 28.8329 108.026 28.7368C107.769 28.6406 107.494 28.5915 107.217 28.5922H82.8327C82.5554 28.5915 82.2808 28.6406 82.0244 28.7368C81.768 28.8329 81.535 28.9743 81.3387 29.1526C81.1423 29.331 80.9866 29.5429 80.8803 29.7763C80.774 30.0096 80.7193 30.2597 80.7193 30.5123C80.7193 30.765 80.774 31.0151 80.8803 31.2484C80.9866 31.4818 81.1423 31.6937 81.3387 31.872C81.535 32.0504 81.768 32.1917 82.0244 32.2879C82.2808 32.3841 82.5554 32.4332 82.8327 32.4325H85.8431C85.566 32.432 85.2915 32.4813 85.0354 32.5775C84.7792 32.6738 84.5464 32.8151 84.3502 32.9935C84.1541 33.1719 83.9985 33.3837 83.8923 33.6169C83.7862 33.8501 83.7315 34.1001 83.7315 34.3526C83.7315 34.6051 83.7862 34.8551 83.8923 35.0883C83.9985 35.3216 84.1541 35.5334 84.3502 35.7118C84.5464 35.8901 84.7792 36.0315 85.0354 36.1277C85.2915 36.224 85.566 36.2733 85.8431 36.2728H81.6285C81.0707 36.2742 80.5362 36.4772 80.1424 36.8371C79.7485 37.1971 79.5273 37.6846 79.5273 38.1929C79.5273 38.7012 79.7485 39.1888 80.1424 39.5487C80.5362 39.9087 81.0707 40.1116 81.6285 40.1131H106.013C106.571 40.1116 107.105 39.9087 107.499 39.5487C107.893 39.1888 108.114 38.7012 108.114 38.1929C108.114 37.6846 107.893 37.1971 107.499 36.8371C107.105 36.4772 106.571 36.2742 106.013 36.2728H110.228C110.786 36.2717 111.321 36.069 111.715 35.709C112.109 35.349 112.331 34.8612 112.331 34.3526C112.331 33.8441 112.109 33.3563 111.715 32.9963C111.321 32.6363 110.786 32.4335 110.228 32.4325Z" fill="#DEE3F3"/>
<path opacity="0.5" d="M352.932 10.1439H350.641C351.066 10.1439 351.474 9.9899 351.775 9.71585C352.075 9.44179 352.244 9.07009 352.244 8.68251C352.244 8.29494 352.075 7.92324 351.775 7.64918C351.474 7.37513 351.066 7.22116 350.641 7.22116H332.082C331.657 7.22116 331.249 7.37513 330.948 7.64918C330.648 7.92324 330.479 8.29494 330.479 8.68251C330.479 9.07009 330.648 9.44179 330.948 9.71585C331.249 9.9899 331.657 10.1439 332.082 10.1439H334.373C333.948 10.1439 333.54 10.2978 333.239 10.5719C332.939 10.8459 332.77 11.2176 332.77 11.6052C332.77 11.9928 332.939 12.3645 333.239 12.6385C333.54 12.9126 333.948 13.0666 334.373 13.0666H331.166C330.955 13.0666 330.747 13.1044 330.552 13.1778C330.358 13.2512 330.181 13.3589 330.032 13.4946C329.883 13.6303 329.765 13.7914 329.684 13.9687C329.604 14.146 329.562 14.336 329.562 14.5279C329.562 14.7198 329.604 14.9099 329.684 15.0872C329.765 15.2645 329.883 15.4256 330.032 15.5613C330.181 15.697 330.358 15.8046 330.552 15.878C330.747 15.9515 330.955 15.9893 331.166 15.9893H349.724C349.935 15.9893 350.143 15.9515 350.338 15.878C350.532 15.8046 350.709 15.697 350.858 15.5613C351.007 15.4256 351.125 15.2645 351.206 15.0872C351.286 14.9099 351.328 14.7198 351.328 14.5279C351.328 14.336 351.286 14.146 351.206 13.9687C351.125 13.7914 351.007 13.6303 350.858 13.4946C350.709 13.3589 350.532 13.2512 350.338 13.1778C350.143 13.1044 349.935 13.0666 349.724 13.0666H352.932C353.357 13.0666 353.765 12.9126 354.066 12.6385C354.366 12.3645 354.535 11.9928 354.535 11.6052C354.535 11.2176 354.366 10.8459 354.066 10.5719C353.765 10.2978 353.357 10.1439 352.932 10.1439H352.932Z" fill="#DEE3F3"/>
<path opacity="0.5" d="M167.98 5.32363H164.969C165.247 5.32436 165.521 5.27523 165.778 5.17906C166.034 5.08289 166.267 4.94157 166.463 4.7632C166.66 4.58482 166.816 4.3729 166.922 4.13958C167.028 3.90625 167.083 3.65611 167.083 3.40349C167.083 3.15086 167.028 2.90073 166.922 2.6674C166.816 2.43408 166.66 2.22216 166.463 2.04378C166.267 1.86541 166.034 1.72409 165.778 1.62792C165.521 1.53175 165.247 1.48262 164.969 1.48335H140.585C140.308 1.48262 140.033 1.53175 139.777 1.62792C139.52 1.72409 139.287 1.86541 139.091 2.04378C138.895 2.22216 138.739 2.43408 138.632 2.6674C138.526 2.90073 138.472 3.15086 138.472 3.40349C138.472 3.65611 138.526 3.90625 138.632 4.13958C138.739 4.3729 138.895 4.58482 139.091 4.7632C139.287 4.94157 139.52 5.08289 139.777 5.17906C140.033 5.27523 140.308 5.32436 140.585 5.32363H143.595C143.318 5.32312 143.044 5.3724 142.788 5.46867C142.531 5.56494 142.299 5.70629 142.102 5.88464C141.906 6.063 141.751 6.27485 141.645 6.50806C141.538 6.74128 141.484 6.99129 141.484 7.24378C141.484 7.49626 141.538 7.74627 141.645 7.97949C141.751 8.21271 141.906 8.42456 142.102 8.60291C142.299 8.78126 142.531 8.92262 142.788 9.01888C143.044 9.11515 143.318 9.16443 143.595 9.16392H139.381C138.823 9.16538 138.288 9.36833 137.895 9.72827C137.501 10.0882 137.279 10.5758 137.279 11.0841C137.279 11.5924 137.501 12.0799 137.895 12.4399C138.288 12.7998 138.823 13.0027 139.381 13.0042H163.765C164.323 13.0027 164.858 12.7998 165.251 12.4399C165.645 12.0799 165.867 11.5924 165.867 11.0841C165.867 10.5758 165.645 10.0882 165.251 9.72827C164.858 9.36833 164.323 9.16538 163.765 9.16392H167.98C168.538 9.16288 169.073 8.96013 169.467 8.60014C169.861 8.24016 170.083 7.75235 170.083 7.24378C170.083 6.7352 169.861 6.2474 169.467 5.88741C169.073 5.52743 168.538 5.32467 167.98 5.32363Z" fill="#DEE3F3"/>
<path d="M261.173 105.542H171.014C167.88 105.542 165.34 107.857 165.34 110.712V143.266C165.34 146.122 167.88 148.437 171.014 148.437H261.173C264.307 148.437 266.848 146.122 266.848 143.266V110.712C266.848 107.857 264.307 105.542 261.173 105.542Z" fill="#6C63FF"/>
<path opacity="0.1" d="M258.757 141.853H173.431V142.658H258.757V141.853Z" fill="black"/>
<path opacity="0.3" d="M258.757 112.244H173.431V141.735H258.757V112.244Z" fill="black"/>
<path opacity="0.1" d="M193.291 138.329C199.791 138.329 205.06 133.527 205.06 127.605C205.06 121.682 199.791 116.881 193.291 116.881C186.792 116.881 181.522 121.682 181.522 127.605C181.522 133.527 186.792 138.329 193.291 138.329Z" fill="black"/>
<path opacity="0.1" d="M238.896 138.329C245.396 138.329 250.666 133.527 250.666 127.605C250.666 121.682 245.396 116.881 238.896 116.881C232.397 116.881 227.127 121.682 227.127 127.605C227.127 133.527 232.397 138.329 238.896 138.329Z" fill="black"/>
<path d="M224.919 148.436H207.266V157.821H224.919V148.436Z" fill="#6C63FF"/>
<path d="M252.872 155.139H179.316V208.758H252.872V155.139Z" fill="#6C63FF"/>
<path d="M254.343 219.482H177.845V226.185H254.343V219.482Z" fill="#6C63FF"/>
<path d="M190.349 242.27V250.313V262.377V269.08V273.101H203.589V269.08V262.377V250.313V242.27V232.887H190.349V242.27Z" fill="#6C63FF"/>
<path d="M230.07 232.887V242.27V250.313V262.377V269.08V273.101H243.31V269.08V262.377V250.313V242.27V232.887H230.07Z" fill="#6C63FF"/>
<path d="M169.297 167.204V179.602C165.663 180.181 162.276 181.668 159.516 183.898C156.957 186.058 154.966 188.718 153.694 191.677C151.992 195.435 151.164 199.608 150.827 203.553C150.41 208.874 150.683 214.221 151.641 219.484H136.929C136.305 212.074 136.504 205.716 137.314 200.257C138.223 194.102 139.905 189.093 142.036 185.018C146.298 176.873 152.36 172.454 157.686 170.054C164.011 167.204 169.297 167.204 169.297 167.204Z" fill="#6C63FF"/>
<path opacity="0.3" d="M203.589 232.887H190.349V242.27H203.589V232.887Z" fill="black"/>
<path opacity="0.3" d="M203.589 250.313H190.349V262.377H203.589V250.313Z" fill="black"/>
<path opacity="0.3" d="M203.589 269.08H190.349V273.101H203.589V269.08Z" fill="black"/>
<path opacity="0.3" d="M243.31 232.887H230.07V242.27H243.31V232.887Z" fill="black"/>
<path opacity="0.3" d="M243.31 250.313H230.07V262.377H243.31V250.313Z" fill="black"/>
<path opacity="0.3" d="M243.31 269.08H230.07V273.101H243.31V269.08Z" fill="black"/>
<path opacity="0.3" d="M169.297 167.204V179.602C165.663 180.181 162.276 181.668 159.516 183.898L157.686 170.054C164.011 167.204 169.297 167.204 169.297 167.204Z" fill="black"/>
<path opacity="0.3" d="M153.694 191.677C151.992 195.435 151.164 199.608 150.827 203.553L137.314 200.257C138.223 194.102 139.905 189.093 142.036 185.018L153.694 191.677Z" fill="black"/>
<path d="M262.891 167.204V179.602C266.525 180.181 269.911 181.668 272.672 183.898C275.231 186.058 277.222 188.718 278.494 191.677C280.196 195.435 281.023 199.608 281.361 203.553C281.778 208.874 281.504 214.221 280.547 219.484H295.258C295.883 212.074 295.684 205.716 294.873 200.257C293.965 194.102 292.283 189.093 290.152 185.018C285.89 176.873 279.828 172.454 274.502 170.054C268.177 167.204 262.891 167.204 262.891 167.204Z" fill="#6C63FF"/>
<path opacity="0.3" d="M262.891 167.204V179.602C266.525 180.181 269.911 181.668 272.672 183.898L274.502 170.054C268.177 167.204 262.891 167.204 262.891 167.204Z" fill="black"/>
<path opacity="0.3" d="M278.494 191.677C280.196 195.435 281.023 199.608 281.361 203.553L294.873 200.257C293.965 194.102 292.283 189.093 290.152 185.018L278.494 191.677Z" fill="black"/>
<path opacity="0.1" d="M224.919 148.436H207.266V149.547H224.919V148.436Z" fill="black"/>
<path opacity="0.1" d="M254.179 164.693V187.142C253.299 186.276 252.811 185.14 252.812 183.96V167.872C252.811 166.693 253.299 165.557 254.179 164.693Z" fill="black"/>
<path opacity="0.1" d="M179.577 166.173V182.978C179.489 184.041 179.005 185.044 178.206 185.821V163.33C179.005 164.107 179.489 165.111 179.577 166.173Z" fill="black"/>
<path opacity="0.1" d="M249.195 208.759H182.995V209.553H249.195V208.759Z" fill="black"/>
<path opacity="0.1" d="M213.886 226.186H181.522V226.801H213.886V226.186Z" fill="black"/>
<path opacity="0.1" d="M249.195 226.186H216.831V226.801H249.195V226.186Z" fill="black"/>
<path d="M190.198 65.845H185.132V105.542H190.198V65.845Z" fill="#6C63FF"/>
<path d="M248.286 65.845H243.22V105.542H248.286V65.845Z" fill="#6C63FF"/>
<path opacity="0.1" d="M187.496 71.3841C190.667 71.3841 193.238 69.042 193.238 66.1528C193.238 63.2636 190.667 60.9214 187.496 60.9214C184.326 60.9214 181.755 63.2636 181.755 66.1528C181.755 69.042 184.326 71.3841 187.496 71.3841Z" fill="black"/>
<path d="M187.496 71.0764C190.667 71.0764 193.238 68.7342 193.238 65.845C193.238 62.9558 190.667 60.6137 187.496 60.6137C184.326 60.6137 181.755 62.9558 181.755 65.845C181.755 68.7342 184.326 71.0764 187.496 71.0764Z" fill="#6C63FF"/>
<path opacity="0.1" d="M245.922 71.3841C249.093 71.3841 251.663 69.042 251.663 66.1528C251.663 63.2636 249.093 60.9214 245.922 60.9214C242.751 60.9214 240.181 63.2636 240.181 66.1528C240.181 69.042 242.751 71.3841 245.922 71.3841Z" fill="black"/>
<path d="M245.922 71.0764C249.093 71.0764 251.663 68.7342 251.663 65.845C251.663 62.9558 249.093 60.6137 245.922 60.6137C242.751 60.6137 240.181 62.9558 240.181 65.845C240.181 68.7342 242.751 71.0764 245.922 71.0764Z" fill="#6C63FF"/>
<path d="M66.2936 187.455C66.2936 187.455 83.0942 217.505 69.4048 233.947C55.7154 250.39 70.6493 295.181 70.6493 295.181" stroke="#FC6681" stroke-width="2" stroke-miterlimit="10"/>
<path d="M71.2715 178.1C71.2715 183.893 66.6046 188.589 66.6046 188.589C66.6046 188.589 61.9378 183.893 61.9378 178.1C61.9378 172.306 66.6047 167.61 66.6047 167.61C66.6047 167.61 71.2715 172.306 71.2715 178.1Z" fill="#FC6681"/>
<path d="M75.005 187.455C75.005 187.455 58.2043 217.505 71.8937 233.947C85.5831 250.39 70.6492 295.181 70.6492 295.181" stroke="#FFD037" stroke-width="2" stroke-miterlimit="10"/>
<path d="M70.027 178.1C70.027 183.893 74.6939 188.589 74.6939 188.589C74.6939 188.589 79.3607 183.893 79.3607 178.1C79.3607 172.306 74.6939 167.61 74.6939 167.61C74.6939 167.61 70.027 172.306 70.027 178.1Z" fill="#FFD037"/>
<path d="M81.8497 187.455C81.8497 187.455 98.6503 217.505 84.9609 233.947C71.2715 250.39 86.2054 295.181 86.2054 295.181" stroke="#FC6681" stroke-width="2" stroke-miterlimit="10"/>
<path d="M86.8277 178.1C86.8277 183.893 82.1609 188.589 82.1609 188.589C82.1609 188.589 77.494 183.893 77.494 178.1C77.494 172.306 82.1609 167.61 82.1609 167.61C82.1609 167.61 86.8277 172.306 86.8277 178.1Z" fill="#FC6681"/>
<path d="M84.2115 202.177C79.8037 206.351 72.8674 206.787 72.8674 206.787C72.8674 206.787 73.0774 200.455 77.4852 196.28C81.893 192.106 88.8293 191.669 88.8293 191.669C88.8293 191.669 88.6193 198.002 84.2115 202.177Z" fill="#FC6681"/>
<path d="M84.649 222.907C80.2412 227.082 73.3049 227.518 73.3049 227.518C73.3049 227.518 73.5149 221.185 77.9227 217.011C82.3305 212.836 89.2668 212.4 89.2668 212.4C89.2668 212.4 89.0568 218.732 84.649 222.907Z" fill="#FC6681"/>
<path d="M60.7464 234.313C64.9145 238.688 64.7693 245.022 64.7693 245.022C64.7693 245.022 57.8665 244.263 53.6984 239.889C49.5304 235.515 49.6755 229.181 49.6755 229.181C49.6755 229.181 56.5784 229.939 60.7464 234.313Z" fill="#FC6681"/>
<path d="M64.6131 190.103C69.9126 193.303 71.6306 199.442 71.6306 199.442C71.6306 199.442 64.7564 200.392 59.4569 197.192C54.1574 193.992 52.4395 187.853 52.4395 187.853C52.4395 187.853 59.3137 186.902 64.6131 190.103Z" fill="#FC6681"/>
<path d="M90.5612 187.455C90.5612 187.455 73.7606 217.505 87.45 233.947C101.139 250.39 86.2055 295.181 86.2055 295.181" stroke="#FFD037" stroke-width="2" stroke-miterlimit="10"/>
<path d="M85.5833 178.1C85.5833 183.893 90.2501 188.589 90.2501 188.589C90.2501 188.589 94.917 183.893 94.917 178.1C94.917 172.306 90.2501 167.61 90.2501 167.61C90.2501 167.61 85.5833 172.306 85.5833 178.1Z" fill="#FFD037"/>
<path d="M86.926 202.622C82.4636 206.749 82.1702 213.078 82.1702 213.078C82.1702 213.078 89.1118 212.718 93.5742 208.592C98.0366 204.465 98.33 198.136 98.33 198.136C98.33 198.136 91.3884 198.496 86.926 202.622Z" fill="#FFD037"/>
<path d="M95.6763 231.326C91.2139 235.452 90.9205 241.782 90.9205 241.782C90.9205 241.782 97.8621 241.421 102.325 237.295C106.787 233.169 107.08 226.839 107.08 226.839C107.08 226.839 100.139 227.2 95.6763 231.326Z" fill="#FFD037"/>
<path d="M82.8026 225.017C82.8026 225.017 92.916 210.492 107.11 210.18" stroke="#FFD037" stroke-width="2" stroke-miterlimit="10"/>
<path d="M74.9272 216.247C74.9272 216.247 64.8138 201.722 50.6198 201.41" stroke="#FC6681" stroke-width="2" stroke-miterlimit="10"/>
<path d="M73.6147 236.977C73.6147 236.977 83.7282 222.452 97.9222 222.14" stroke="#FFD037" stroke-width="2" stroke-miterlimit="10"/>
<path d="M106.647 212.459C108.097 212.459 109.272 211.389 109.272 210.068C109.272 208.746 108.097 207.676 106.647 207.676C105.197 207.676 104.022 208.746 104.022 210.068C104.022 211.389 105.197 212.459 106.647 212.459Z" fill="#FFD037"/>
<path d="M50.8638 203.888C52.3136 203.888 53.4889 202.817 53.4889 201.496C53.4889 200.175 52.3136 199.104 50.8638 199.104C49.414 199.104 48.2387 200.175 48.2387 201.496C48.2387 202.817 49.414 203.888 50.8638 203.888Z" fill="#FC6681"/>
<path d="M81.0524 241.761C81.0524 241.761 70.939 227.236 56.745 226.924" stroke="#FC6681" stroke-width="2" stroke-miterlimit="10"/>
<path d="M56.9891 229.403C58.4389 229.403 59.6142 228.332 59.6142 227.011C59.6142 225.69 58.4389 224.619 56.9891 224.619C55.5393 224.619 54.364 225.69 54.364 227.011C54.364 228.332 55.5393 229.403 56.9891 229.403Z" fill="#FC6681"/>
<path d="M98.1156 224.619C99.5654 224.619 100.741 223.548 100.741 222.227C100.741 220.906 99.5654 219.835 98.1156 219.835C96.6658 219.835 95.4905 220.906 95.4905 222.227C95.4905 223.548 96.6658 224.619 98.1156 224.619Z" fill="#FFD037"/>
<path d="M136.954 277.733C136.954 277.733 112.583 273.292 106.084 267.37C99.5851 261.449 70.3398 251.085 67.0904 258.488C63.8409 265.89 23.2225 291.057 50.843 295.499C78.4635 299.94 115.833 301.42 123.956 298.46C132.08 295.499 136.954 277.733 136.954 277.733Z" fill="#A8A8A8"/>
<path opacity="0.2" d="M50.843 292.749C78.4635 297.19 115.832 298.67 123.956 295.71C130.143 293.455 134.442 282.621 136.142 277.579C136.656 277.679 136.954 277.733 136.954 277.733C136.954 277.733 132.08 295.499 123.956 298.46C115.832 301.42 78.4635 299.94 50.843 295.499C42.87 294.217 40.5899 291.206 41.4488 287.396C42.1305 289.882 44.9086 291.794 50.843 292.749Z" fill="black"/>
<path d="M400.175 192.76C400.175 192.76 406.014 199.718 397.48 210.223C388.945 220.729 381.908 229.597 384.753 236.145C384.753 236.145 397.629 216.636 408.11 216.363C418.591 216.09 411.704 204.493 400.175 192.76Z" fill="#FC6681"/>
<path opacity="0.1" d="M400.175 192.76C400.684 193.432 401.086 194.167 401.368 194.942C411.594 205.89 417.042 216.107 407.212 216.363C398.056 216.601 387.072 231.52 384.441 235.288C384.527 235.579 384.631 235.865 384.752 236.145C384.752 236.145 397.629 216.636 408.11 216.363C418.591 216.09 411.704 204.493 400.175 192.76Z" fill="black"/>
<path d="M411.03 201.628C411.03 204.077 410.728 206.062 410.356 206.062C409.984 206.062 409.683 204.077 409.683 201.628C409.683 199.179 410.059 200.332 410.431 200.332C410.803 200.332 411.03 199.179 411.03 201.628Z" fill="#FFD037"/>
<path d="M414.755 204.552C412.395 205.724 410.338 206.433 410.16 206.135C409.982 205.837 411.75 204.646 414.11 203.474C416.47 202.302 415.539 203.155 415.717 203.452C415.896 203.75 417.115 203.38 414.755 204.552Z" fill="#FFD037"/>
<path d="M369.33 192.76C369.33 192.76 363.491 199.718 372.025 210.223C380.56 220.729 387.597 229.597 384.753 236.145C384.753 236.145 371.876 216.636 361.395 216.363C350.914 216.09 357.801 204.493 369.33 192.76Z" fill="#FC6681"/>
<path opacity="0.1" d="M369.33 192.76C368.821 193.432 368.419 194.167 368.137 194.942C357.911 205.89 352.463 216.107 362.293 216.363C371.449 216.601 382.433 231.52 385.064 235.288C384.978 235.579 384.874 235.865 384.753 236.145C384.753 236.145 371.876 216.636 361.395 216.363C350.914 216.09 357.801 204.493 369.33 192.76Z" fill="black"/>
<path d="M358.475 201.628C358.475 204.077 358.777 206.062 359.149 206.062C359.521 206.062 359.822 204.077 359.822 201.628C359.822 199.179 359.446 200.332 359.074 200.332C358.702 200.332 358.475 199.179 358.475 201.628Z" fill="#FFD037"/>
<path d="M354.75 204.552C357.11 205.724 359.167 206.433 359.345 206.135C359.523 205.837 357.754 204.646 355.395 203.474C353.035 202.302 353.966 203.155 353.787 203.452C353.609 203.75 352.39 203.38 354.75 204.552Z" fill="#FFD037"/>
<path d="M360.334 235.235C360.334 235.235 376.661 234.777 381.581 231.584C386.502 228.392 406.695 224.58 407.916 229.7C409.137 234.82 432.452 255.165 414.019 255.301C395.587 255.436 371.19 252.684 366.279 249.959C361.369 247.233 360.334 235.235 360.334 235.235Z" fill="#A8A8A8"/>
<path opacity="0.2" d="M414.348 253.518C395.916 253.654 371.519 250.902 366.609 248.176C362.869 246.101 361.378 238.652 360.88 235.216C360.534 235.229 360.335 235.235 360.335 235.235C360.335 235.235 361.369 247.233 366.28 249.959C371.19 252.684 395.587 255.436 414.019 255.301C419.34 255.261 421.178 253.537 421.077 250.982C420.338 252.525 418.308 253.489 414.348 253.518Z" fill="black"/>
</svg>
