<svg width="450" height="300" viewBox="0 0 450 335" fill="none" xmlns="http://www.w3.org/2000/svg">
<path d="M225.474 285.043C194.984 285.043 165.437 275.21 141.868 257.221C118.299 239.232 102.166 214.199 96.2177 186.387C90.2695 158.576 94.8741 129.706 109.247 104.698C123.62 79.69 146.872 60.0904 175.041 49.2389C203.21 38.3874 234.554 36.9553 263.731 45.1868C292.908 53.4183 318.114 70.8039 335.053 94.3815C351.993 117.959 359.618 146.27 356.629 174.49C353.64 202.709 340.223 229.093 318.663 249.144C306.454 260.561 291.931 269.612 275.935 275.774C259.939 281.936 242.788 285.087 225.474 285.043ZM225.474 40.851C153.364 40.851 94.6983 95.4117 94.6983 162.476C94.6983 229.54 153.364 284.1 225.474 284.1C297.584 284.1 356.25 229.54 356.25 162.476C356.25 95.4117 297.584 40.851 225.474 40.851Z" fill="#CCCCCC"/>
<path d="M274.409 303.423V179.944H175.591V303.423H274.409Z" fill="#2F2E41"/>
<path d="M291.385 176.174H158.615V225.188H291.385V176.174Z" fill="#3F3D56"/>
<path d="M291.385 230.844H158.615V279.859H291.385V230.844Z" fill="#3F3D56"/>
<path d="M291.385 285.514H158.615V334.529H291.385V285.514Z" fill="#3F3D56"/>
<path d="M291.385 196.956H158.615V204.497H291.385V196.956Z" fill="#6C63FF"/>
<path d="M291.385 251.626H158.615V259.167H291.385V251.626Z" fill="#6C63FF"/>
<path d="M291.385 306.297H158.615V313.837H291.385V306.297Z" fill="#6C63FF"/>
<path d="M265.541 186.071C267.22 186.071 268.581 184.805 268.581 183.243C268.581 181.681 267.22 180.415 265.541 180.415C263.861 180.415 262.5 181.681 262.5 183.243C262.5 184.805 263.861 186.071 265.541 186.071Z" fill="#6C63FF"/>
<path d="M276.182 186.071C277.862 186.071 279.223 184.805 279.223 183.243C279.223 181.681 277.862 180.415 276.182 180.415C274.503 180.415 273.142 181.681 273.142 183.243C273.142 184.805 274.503 186.071 276.182 186.071Z" fill="#6C63FF"/>
<path d="M286.824 186.071C288.504 186.071 289.865 184.805 289.865 183.243C289.865 181.681 288.504 180.415 286.824 180.415C285.145 180.415 283.784 181.681 283.784 183.243C283.784 184.805 285.145 186.071 286.824 186.071Z" fill="#6C63FF"/>
<path d="M265.541 239.799C267.22 239.799 268.581 238.533 268.581 236.971C268.581 235.409 267.22 234.143 265.541 234.143C263.861 234.143 262.5 235.409 262.5 236.971C262.5 238.533 263.861 239.799 265.541 239.799Z" fill="#6C63FF"/>
<path d="M276.182 239.799C277.862 239.799 279.223 238.533 279.223 236.971C279.223 235.409 277.862 234.143 276.182 234.143C274.503 234.143 273.142 235.409 273.142 236.971C273.142 238.533 274.503 239.799 276.182 239.799Z" fill="#6C63FF"/>
<path d="M286.824 239.799C288.504 239.799 289.865 238.533 289.865 236.971C289.865 235.409 288.504 234.143 286.824 234.143C285.145 234.143 283.784 235.409 283.784 236.971C283.784 238.533 285.145 239.799 286.824 239.799Z" fill="#6C63FF"/>
<path d="M265.541 293.526C267.22 293.526 268.581 292.26 268.581 290.698C268.581 289.137 267.22 287.871 265.541 287.871C263.861 287.871 262.5 289.137 262.5 290.698C262.5 292.26 263.861 293.526 265.541 293.526Z" fill="#6C63FF"/>
<path d="M276.182 293.526C277.862 293.526 279.223 292.26 279.223 290.698C279.223 289.137 277.862 287.871 276.182 287.871C274.503 287.871 273.142 289.137 273.142 290.698C273.142 292.26 274.503 293.526 276.182 293.526Z" fill="#6C63FF"/>
<path d="M286.824 293.526C288.504 293.526 289.865 292.26 289.865 290.698C289.865 289.137 288.504 287.871 286.824 287.871C285.145 287.871 283.784 289.137 283.784 290.698C283.784 292.26 285.145 293.526 286.824 293.526Z" fill="#6C63FF"/>
<path d="M450 334.057H0V335H450V334.057Z" fill="#3F3D56"/>
<path d="M122.574 127.751V215.408C122.573 217.242 121.79 219.001 120.396 220.298C119.001 221.594 117.11 222.323 115.138 222.323H78.5109C76.5386 222.324 74.6469 221.595 73.252 220.299C71.857 219.002 71.0731 217.243 71.0725 215.408V127.751C71.0731 125.917 71.857 124.158 73.252 122.861C74.6469 121.565 76.5386 120.836 78.5109 120.837H82.9541C82.7359 121.336 82.6529 121.877 82.7123 122.412C82.7717 122.948 82.9717 123.462 83.2947 123.909C83.6177 124.357 84.0539 124.723 84.5649 124.977C85.0759 125.23 85.646 125.363 86.2252 125.364H107.108C107.687 125.363 108.257 125.23 108.768 124.977C109.279 124.723 109.715 124.357 110.038 123.909C110.361 123.462 110.561 122.948 110.621 122.412C110.68 121.877 110.597 121.335 110.379 120.837H115.138C117.11 120.837 119.001 121.566 120.396 122.862C121.79 124.159 122.573 125.918 122.574 127.751Z" fill="#E6E6E6"/>
<path d="M120.134 137.576H73.5122V197.902H120.134V137.576Z" fill="white"/>
<path d="M105.357 179.058H86.7495V180.047H105.357V179.058Z" fill="#E6E6E6"/>
<path d="M115.523 182.689H86.7307V183.678H115.523V182.689Z" fill="#6C63FF"/>
<path d="M109.326 186.11H86.7307V187.099H109.326V186.11Z" fill="#E6E6E6"/>
<path d="M100.022 189.531H86.7307V190.52H100.022V189.531Z" fill="#E6E6E6"/>
<path d="M106.668 192.952H86.7307V193.941H106.668V192.952Z" fill="#E6E6E6"/>
<path d="M80.4374 178.773H78.3108V180.751H80.4374V178.773Z" fill="#E6E6E6"/>
<path d="M80.4374 182.194H78.3108V184.172H80.4374V182.194Z" fill="#6C63FF"/>
<path d="M80.4374 185.615H78.3108V187.593H80.4374V185.615Z" fill="#E6E6E6"/>
<path d="M80.4374 189.036H78.3108V191.014H80.4374V189.036Z" fill="#E6E6E6"/>
<path d="M80.4374 192.457H78.3108V194.435H80.4374V192.457Z" fill="#E6E6E6"/>
<path d="M106.291 145.117H87.5427V162.553H106.291V145.117Z" fill="#E6E6E6"/>
<path d="M287.328 0.0666809H162.725V74.2839H287.328V0.0666809Z" fill="#E6E6E6"/>
<path d="M275.426 20.8291H172.118V57.1354H275.426V20.8291Z" fill="white"/>
<path d="M215.735 27.1192H190.941V28.4368H215.735V27.1192Z" fill="#E6E6E6"/>
<path d="M229.28 31.9573H190.916V33.2749H229.28V31.9573Z" fill="#6C63FF"/>
<path d="M221.023 36.5155H190.916V37.8331H221.023V36.5155Z" fill="#E6E6E6"/>
<path d="M208.626 41.0737H190.916V42.3913H208.626V41.0737Z" fill="#E6E6E6"/>
<path d="M217.481 45.6318H190.916V46.9495H217.481V45.6318Z" fill="#E6E6E6"/>
<path d="M182.53 26.7403H179.697V29.3756H182.53V26.7403Z" fill="#E6E6E6"/>
<path d="M182.53 31.2984H179.697V33.9337H182.53V31.2984Z" fill="#6C63FF"/>
<path d="M182.53 35.8566H179.697V38.4919H182.53V35.8566Z" fill="#E6E6E6"/>
<path d="M182.53 40.4148H179.697V43.0501H182.53V40.4148Z" fill="#E6E6E6"/>
<path d="M182.53 44.973H179.697V47.6083H182.53V44.973Z" fill="#E6E6E6"/>
<path d="M270.357 25.3781H244.989V48.9705H270.357V25.3781Z" fill="#E6E6E6"/>
<path d="M287.275 0H162.672V4.92317H287.275V0Z" fill="#6C63FF"/>
<path d="M166.606 3.50523C167.192 3.50523 167.668 3.06278 167.668 2.51699C167.668 1.9712 167.192 1.52875 166.606 1.52875C166.019 1.52875 165.543 1.9712 165.543 2.51699C165.543 3.06278 166.019 3.50523 166.606 3.50523Z" fill="white"/>
<path d="M170.33 3.50523C170.917 3.50523 171.392 3.06278 171.392 2.51699C171.392 1.9712 170.917 1.52875 170.33 1.52875C169.743 1.52875 169.267 1.9712 169.267 2.51699C169.267 3.06278 169.743 3.50523 170.33 3.50523Z" fill="white"/>
<path d="M174.054 3.50523C174.641 3.50523 175.116 3.06278 175.116 2.51699C175.116 1.9712 174.641 1.52875 174.054 1.52875C173.467 1.52875 172.991 1.9712 172.991 2.51699C172.991 3.06278 173.467 3.50523 174.054 3.50523Z" fill="white"/>
<path d="M370.767 138.941H340.362V153.552H370.767V138.941Z" fill="#E6E6E6"/>
<path d="M370.767 191.255H340.362V205.865H370.767V191.255Z" fill="#E6E6E6"/>
<path d="M355.565 195.968C369.558 195.968 380.902 185.418 380.902 172.403C380.902 159.389 369.558 148.839 355.565 148.839C341.571 148.839 330.227 159.389 330.227 172.403C330.227 185.418 341.571 195.968 355.565 195.968Z" fill="#E6E6E6"/>
<path d="M355.565 190.784C366.48 190.784 375.328 182.555 375.328 172.403C375.328 162.252 366.48 154.023 355.565 154.023C344.65 154.023 335.801 162.252 335.801 172.403C335.801 182.555 344.65 190.784 355.565 190.784Z" fill="white"/>
<path d="M364.421 167.367H349.093V168.182H364.421V167.367Z" fill="#E2E2E2"/>
<path d="M372.794 170.358H349.077V171.173H372.794V170.358Z" fill="#6C63FF"/>
<path d="M367.69 173.176H349.077V173.991H367.69V173.176Z" fill="#E2E2E2"/>
<path d="M360.026 175.994H349.077V176.809H360.026V175.994Z" fill="#E2E2E2"/>
<path d="M365.5 178.812H349.077V179.626H365.5V178.812Z" fill="#E2E2E2"/>
<path d="M343.894 167.133H342.142V168.762H343.894V167.133Z" fill="#E2E2E2"/>
<path d="M343.894 169.951H342.142V171.58H343.894V169.951Z" fill="#6C63FF"/>
<path d="M343.894 172.769H342.142V174.398H343.894V172.769Z" fill="#E2E2E2"/>
<path d="M343.894 175.587H342.142V177.216H343.894V175.587Z" fill="#E2E2E2"/>
<path d="M343.894 178.405H342.142V180.034H343.894V178.405Z" fill="#E2E2E2"/>
</svg>
