<svg width="450" height="300" viewBox="0 0 450 300" fill="none" xmlns="http://www.w3.org/2000/svg">
<g clip-path="url(#clip0)">
<path opacity="0.1" d="M355.916 257.433C406.914 257.433 448.257 249.873 448.257 240.547C448.257 231.222 406.914 223.662 355.916 223.662C304.917 223.662 263.575 231.222 263.575 240.547C263.575 249.873 304.917 257.433 355.916 257.433Z" fill="#6C63FF"/>
<g opacity="0.5">
<path opacity="0.5" d="M276.822 42.5671C275.576 42.9 274.052 43.7673 273.3 46.139C271.828 50.7878 275.249 53.9487 274.122 58.7948C273.809 60.0803 273.213 61.29 272.374 62.3462C270.998 64.1013 269.504 64.9316 268.053 66.1606C266.213 67.7307 264.895 69.7676 264.257 72.0261C263.557 74.5189 263.499 77.1326 264.086 79.6509C264.602 81.7554 265.48 83.2886 266.249 84.9944C267.205 87.1701 267.952 89.422 268.481 91.7231C268.772 92.8436 268.936 93.9899 268.971 95.1429C268.949 96.6747 268.803 98.2027 268.534 99.7136L266.441 113.451C266.123 115.247 265.932 117.061 265.869 118.88C265.896 120.704 266.12 122.521 266.537 124.302C267.271 127.935 268.062 131.701 269.744 133.624C271.426 135.548 274.292 134.857 276.053 130.965C277.726 127.241 277.765 122.271 279.242 118.293C281.571 112.024 286.197 111.182 288.766 105.201C291.23 99.4465 290.474 92.4259 291.724 85.8822C292.598 81.1923 294.524 76.9175 295.656 72.2851C297.281 65.6139 297.119 58.688 295.822 53.5582C294.835 49.3433 292.7 45.4424 289.627 42.2382C288.539 41.1079 287.372 40.1008 286.005 39.9981C284.55 39.8912 283.279 41.6135 281.841 42.1314C280.181 42.7438 278.512 42.1149 276.822 42.5671Z" fill="#6C63FF"/>
<path opacity="0.5" d="M284.699 40.3475C284.699 40.3475 282.235 99.6767 271.872 134.66" stroke="#535461" stroke-width="2" stroke-miterlimit="10"/>
<path opacity="0.5" d="M273.239 46.4185C273.239 46.4185 284.314 55.9052 282.213 73.958" stroke="#535461" stroke-width="2" stroke-miterlimit="10"/>
<path opacity="0.5" d="M263.947 73.4155C263.947 73.4155 282.125 76.8559 280.776 87.0866" stroke="#535461" stroke-width="2" stroke-miterlimit="10"/>
<path opacity="0.5" d="M295.852 53.4349C295.852 53.4349 288.495 59.4936 281.942 76.6544" stroke="#535461" stroke-width="2" stroke-miterlimit="10"/>
<path opacity="0.5" d="M288.666 105.3C288.666 105.3 283.646 108.999 279.618 96.0471" stroke="#535461" stroke-width="2" stroke-miterlimit="10"/>
<path opacity="0.5" d="M267.005 112.867C267.005 112.867 277.241 111.609 278.185 105.579" stroke="#535461" stroke-width="2" stroke-miterlimit="10"/>
</g>
<path d="M301.567 2.77452C299.033 3.12801 295.984 4.23371 294.73 7.64121C292.27 14.3247 299.745 19.3846 298.024 26.3681C297.51 28.2899 296.429 30.0357 294.904 31.4033C292.283 33.8325 289.286 34.893 286.446 36.5413C283.607 38.1895 280.658 40.7832 279.325 44.762C278.045 48.5888 278.6 52.8143 279.932 55.971C281.265 59.1278 283.279 61.483 285.079 64.0808C287.266 67.2783 289.095 70.6807 290.536 74.2334C291.262 75.8527 291.75 77.5579 291.986 79.3015C292.218 81.4389 291.925 83.7366 291.632 85.985L289.033 106.019C288.688 108.682 288.338 111.387 288.535 113.952C288.757 116.907 289.688 119.489 290.605 122.008C292.58 127.442 294.695 133.106 298.421 136.099C302.148 139.091 307.994 138.45 311.144 132.884C314.141 127.586 313.59 120.274 316.146 114.581C320.174 105.608 329.646 104.88 334.203 96.3637C338.571 88.1923 336.129 77.7396 337.886 68.2446C339.144 61.4419 342.552 55.3586 344.299 48.6628C346.82 39.0157 345.61 28.8014 342.281 21.1232C338.952 13.4451 333.687 7.97004 328.038 3.76512C325.644 1.97711 323.106 0.361731 320.261 0.0657836C317.238 -0.250715 314.822 2.14152 311.917 2.74575C308.535 3.40752 305.005 2.29361 301.567 2.77452Z" fill="#6C63FF"/>
<path d="M317.592 0.382263C317.592 0.382263 319.977 87.4771 302.93 137.842" stroke="#535461" stroke-width="2" stroke-miterlimit="10"/>
<path d="M294.634 8.06046C294.634 8.06046 318.75 23.2688 316.683 49.641" stroke="#535461" stroke-width="2" stroke-miterlimit="10"/>
<path d="M278.805 46.7679C278.805 46.7679 316.867 53.8624 315.364 68.7748" stroke="#535461" stroke-width="2" stroke-miterlimit="10"/>
<path d="M342.324 20.9013C342.324 20.9013 327.859 29.0028 316.465 53.5418" stroke="#535461" stroke-width="2" stroke-miterlimit="10"/>
<path d="M333.975 96.4788C333.975 96.4788 324.058 101.411 314.084 81.8417" stroke="#535461" stroke-width="2" stroke-miterlimit="10"/>
<path d="M290.099 105.197C290.099 105.197 311.126 104.486 312.323 95.7101" stroke="#535461" stroke-width="2" stroke-miterlimit="10"/>
<path d="M29.3807 237.822C29.3807 237.822 33.0418 242.344 27.6899 249.126C22.3381 255.908 17.9167 261.671 19.7124 265.913C19.7124 265.913 27.7861 253.281 34.3569 253.105C40.9277 252.928 36.6112 245.418 29.3807 237.822Z" fill="#6C63FF"/>
<path opacity="0.1" d="M29.3808 237.822C29.7075 238.257 29.9664 238.733 30.1497 239.236C36.5633 246.323 39.9754 252.936 33.8152 253.105C28.0745 253.261 21.1892 262.916 19.5377 265.358C19.5922 265.546 19.6578 265.731 19.7343 265.913C19.7343 265.913 27.808 253.281 34.3788 253.105C40.9496 252.928 36.6113 245.418 29.3808 237.822Z" fill="black"/>
<path d="M36.1875 243.565C36.1875 245.151 35.9996 246.442 35.7506 246.442C35.5016 246.442 35.3137 245.155 35.3137 243.565C35.3137 241.974 35.5496 242.742 35.7812 242.742C36.0127 242.742 36.1875 241.978 36.1875 243.565Z" fill="#FFD037"/>
<path d="M38.5248 245.455C37.0438 246.216 35.755 246.688 35.6458 246.479C35.5365 246.269 36.6419 245.513 38.1229 244.757C39.604 244 39.0185 244.551 39.1321 244.757C39.2457 244.962 40.0015 244.695 38.5248 245.455Z" fill="#FFD037"/>
<path d="M10.0528 237.822C10.0528 237.822 6.3917 242.344 11.7436 249.126C17.0955 255.908 21.5081 261.667 19.7212 265.909C19.7212 265.909 11.6475 253.277 5.07666 253.101C-1.49415 252.924 2.81358 245.418 10.0528 237.822Z" fill="#6C63FF"/>
<path opacity="0.1" d="M10.0528 237.822C9.73379 238.258 9.48225 238.734 9.30575 239.236C2.89222 246.323 -0.519884 252.936 5.64025 253.105C11.381 253.261 18.2663 262.916 19.9178 265.358C19.8633 265.546 19.7977 265.731 19.7212 265.913C19.7212 265.913 11.6475 253.281 5.07666 253.105C-1.49415 252.928 2.81358 245.418 10.0528 237.822Z" fill="black"/>
<path d="M3.2373 243.565C3.2373 245.151 3.42517 246.442 3.67419 246.442C3.92322 246.442 4.11108 245.155 4.11108 243.565C4.11108 241.974 3.87516 242.742 3.64361 242.742C3.41206 242.742 3.2373 241.978 3.2373 243.565Z" fill="#FFD037"/>
<path d="M0.899793 245.455C2.38085 246.216 3.66967 246.688 3.77889 246.479C3.88811 246.269 2.78278 245.513 1.30173 244.757C-0.179324 244 0.406108 244.551 0.292517 244.757C0.178926 244.962 -0.576892 244.695 0.899793 245.455Z" fill="#FFD037"/>
<path d="M4.40381 265.321C4.40381 265.321 14.6401 265.025 17.7246 262.957C20.809 260.89 33.4526 258.436 34.2346 261.724C35.0166 265.013 49.6174 278.211 38.0617 278.297C26.506 278.384 11.2105 276.604 8.13047 274.84C5.0504 273.077 4.40381 265.321 4.40381 265.321Z" fill="#A8A8A8"/>
<path opacity="0.2" d="M38.2671 277.155C26.7114 277.241 11.4159 275.461 8.33581 273.698C5.98972 272.354 5.05477 267.532 4.74458 265.308H4.40381C4.40381 265.308 5.0504 273.077 8.13047 274.84C11.2105 276.604 26.506 278.388 38.0617 278.297C41.3996 278.273 42.5486 277.155 42.4874 275.502C42.0243 276.513 40.753 277.138 38.2671 277.155Z" fill="black"/>
<path d="M429.182 235.952C429.983 235.338 430.566 234.509 430.856 233.576C431.074 232.631 430.646 231.501 429.685 231.155C428.61 230.769 427.461 231.468 426.591 232.179C425.722 232.89 424.722 233.695 423.581 233.543C424.167 233.044 424.606 232.409 424.854 231.703C425.102 230.996 425.151 230.241 424.997 229.511C424.948 229.209 424.812 228.924 424.604 228.689C424.005 228.089 422.926 228.348 422.209 228.821C419.938 230.325 419.304 233.227 419.291 235.841C419.064 234.9 419.256 233.917 419.247 232.964C419.239 232.01 418.959 230.909 418.094 230.407C417.558 230.136 416.955 230.001 416.346 230.017C415.324 229.98 414.188 230.078 413.489 230.781C412.615 231.653 412.847 233.12 413.603 234.07C414.359 235.019 415.503 235.631 416.56 236.297C417.408 236.771 418.131 237.419 418.675 238.192C418.739 238.299 418.792 238.412 418.832 238.529H425.233C426.667 237.842 427.995 236.975 429.182 235.952Z" fill="#6C63FF"/>
<path opacity="0.1" d="M64.1047 197.43C78.0065 214.06 72.6066 238.357 63.7727 257.811C60.815 264.326 57.4684 271.219 58.7179 278.203C60.2426 286.744 68.3294 293 76.8575 296.288C92.3671 302.322 110.935 300.884 125.182 292.544C137.498 285.334 146.318 273.611 158.844 266.731C179.815 255.222 206.491 259.566 229.253 267.495C245.357 273.106 262.963 280.406 278.967 274.54C290.225 270.43 298.011 260.372 302.253 249.726C304.302 244.584 305.787 239.039 309.68 234.929C312.004 232.508 315.036 230.785 318.147 229.339C346.545 216.099 382.37 223.173 409.929 208.507C428.544 198.593 440.463 179.887 445.753 160.383C451.044 140.879 450.415 120.426 449.074 100.343C448.121 86.0672 446.413 70.83 436.719 59.8101C426.465 48.1572 408.863 43.8207 392.955 46.0362C377.048 48.2517 362.622 56.1847 349.952 65.4824C334.098 77.1025 319.396 91.5751 299.929 96.2856C286.673 99.4917 272.728 97.7366 259.053 97.1323C236.195 96.1171 213.333 98.3654 190.602 100.832C168.84 103.199 146.913 105.805 126.191 112.464C111.52 117.179 99.7592 125.732 85.9055 131.709C76.875 135.605 67.0275 136.682 58.482 141.644C47.9486 147.756 38.2977 158.389 41.0064 170.827C43.5491 182.669 56.7213 188.605 64.1047 197.43Z" fill="#6C63FF"/>
<path opacity="0.1" d="M241.316 197.421C344.507 197.421 428.16 189.862 428.16 180.536C428.16 171.21 344.507 163.651 241.316 163.651C138.124 163.651 54.4713 171.21 54.4713 180.536C54.4713 189.862 138.124 197.421 241.316 197.421Z" fill="#6C63FF"/>
<path opacity="0.1" d="M97.7145 294.837C148.713 294.837 190.055 287.277 190.055 277.952C190.055 268.626 148.713 261.066 97.7145 261.066C46.7161 261.066 5.37366 268.626 5.37366 277.952C5.37366 287.277 46.7161 294.837 97.7145 294.837Z" fill="#6C63FF"/>
<path d="M192.109 175.271L190.645 177.272C190.645 177.272 192.24 179.274 192.393 179.525C192.546 179.776 197.046 179.402 197.046 179.402L197.443 177.901L196.779 176.15L192.109 175.271Z" fill="#E6E6F0"/>
<path d="M142.902 174.144L139.975 174.642L141.836 178.025L143.833 179.023L145.694 180.273L146.227 178.9L144.894 176.269L142.902 174.144Z" fill="#FDC2CC"/>
<path d="M190.781 141.611C190.781 141.611 206.343 145.113 209.265 149.009C209.265 149.009 211.926 151.139 209.265 155.015C206.605 158.891 202.882 167.654 202.882 167.654C202.882 167.654 200.222 176.163 199.16 176.787C198.099 177.412 191.978 177.914 191.445 175.554C191.445 175.554 194.9 170.424 194.9 168.045C194.9 165.665 200.619 154.406 200.619 154.406C200.619 154.406 187.587 153.029 183.463 153.905C179.339 154.78 185.328 140.234 190.781 141.611Z" fill="#565171"/>
<path opacity="0.1" d="M190.781 141.611C190.781 141.611 206.343 145.113 209.265 149.009C209.265 149.009 211.926 151.139 209.265 155.015C206.605 158.891 202.882 167.654 202.882 167.654C202.882 167.654 200.222 176.163 199.16 176.787C198.099 177.412 191.978 177.914 191.445 175.554C191.445 175.554 194.9 170.424 194.9 168.045C194.9 165.665 200.619 154.406 200.619 154.406C200.619 154.406 187.587 153.029 183.463 153.905C179.339 154.78 185.328 140.234 190.781 141.611Z" fill="black"/>
<path d="M187.587 144.989C187.556 145.717 187.473 146.535 187.356 147.415C186.504 153.786 183.729 163.26 183.729 163.26C183.729 163.26 180.938 168.891 180.138 172.521C179.339 176.15 173.886 177.042 173.886 177.042C173.886 177.042 158.988 178.686 155.93 178.045C152.872 177.404 148.066 179.924 145.689 179.545C143.313 179.167 141.832 173.914 141.832 173.914C145.957 173.937 150.039 173.127 153.802 171.538C159.919 168.912 168.7 170.161 168.7 170.161C169.355 169.982 169.964 169.679 170.49 169.271C171.016 168.862 171.448 168.357 171.759 167.786C172.689 165.907 172.689 154.521 172.423 153.769C170.675 148.837 170.819 145.672 171.322 143.826C171.49 143.02 171.868 142.266 172.423 141.631L187.587 144.989Z" fill="#565171"/>
<path opacity="0.1" d="M187.587 144.989C187.556 145.717 187.473 146.535 187.355 147.415C186.019 147.513 182.27 147.608 179.491 145.992C176.87 144.48 173.056 143.966 171.339 143.806C171.507 143 171.886 142.245 172.44 141.611L187.587 144.989Z" fill="black"/>
<path d="M189.426 143.423C188.806 145.068 187.854 146.995 187.854 146.995C187.854 146.995 182.934 147.62 179.474 145.618C176.014 143.617 170.43 143.366 170.43 143.366C171.335 142.844 171.946 141.257 172.327 139.868C172.539 139.082 172.705 138.287 172.825 137.484C172.825 137.484 189.182 140.612 189.863 141.113C190.117 141.311 189.846 142.305 189.426 143.423Z" fill="#E6E6F0"/>
<path d="M218.576 90.6832L198.736 101.95L196.766 103.068V97.5639L198.134 96.9474L214.853 89.4295C214.853 89.4295 215.653 75.7913 217.78 77.9204C219.908 80.0496 218.576 90.6832 218.576 90.6832Z" fill="#FDC2CC"/>
<path opacity="0.1" d="M198.736 101.95L196.766 103.068V97.5639L198.134 96.9474C198.224 98.6249 198.425 100.296 198.736 101.95Z" fill="black"/>
<path d="M183.467 103.964L197.697 96.2075C197.697 96.2075 197.963 103.717 199.558 104.839C199.558 104.839 193.708 106.483 191.445 109.969L183.467 103.964Z" fill="#B45181"/>
<path opacity="0.1" d="M183.467 103.964L197.697 96.2075C197.697 96.2075 197.963 103.717 199.558 104.839C199.558 104.839 193.708 106.483 191.445 109.969L183.467 103.964Z" fill="black"/>
<path d="M218.449 110.577C218.449 110.577 211.681 113.352 207.199 114.371C206.19 114.657 205.135 114.772 204.084 114.708C201.026 114.207 204.883 110.598 204.883 110.598L206.491 110.364L215.124 109.098C215.124 109.098 216.055 96.5856 217.649 97.5886C219.244 98.5915 218.449 110.577 218.449 110.577Z" fill="#FDC2CC"/>
<path d="M189.85 99.3149C189.85 99.3149 184.131 103.318 186.259 108.325C188.386 113.331 175.219 105.32 175.219 105.32C175.219 105.32 179.474 99.315 180.405 94.81C181.335 90.305 189.85 99.3149 189.85 99.3149Z" fill="#FDC2CC"/>
<path opacity="0.1" d="M189.426 143.423C186.953 142.547 184.368 141.98 181.737 141.738C177.892 141.327 174.371 140.632 172.331 139.868C172.543 139.082 172.709 138.287 172.829 137.484C172.829 137.484 189.186 140.612 189.868 141.113C190.117 141.311 189.846 142.305 189.426 143.423Z" fill="black"/>
<path opacity="0.1" d="M207.195 114.371C206.186 114.657 205.131 114.772 204.08 114.708C201.021 114.207 204.879 110.598 204.879 110.598L206.487 110.364C207.16 111.338 207.846 112.859 207.195 114.371Z" fill="black"/>
<path d="M180.54 101.567C180.54 101.567 175.354 101.444 173.493 103.446C171.632 105.448 172.029 110.845 172.029 110.845C172.029 110.845 171.641 121.651 174.555 127.697C174.651 127.892 174.662 128.115 174.585 128.318C174.555 128.392 174.555 128.346 174.555 128.346C174.555 128.346 172.694 136.23 170.832 137.607C168.971 138.984 174.821 140.612 181.755 141.36C188.688 142.108 191.462 143.986 191.462 143.986C191.462 143.986 192.659 142.753 192.773 139.983C192.886 137.213 190.925 117.084 190.925 117.084C190.925 117.084 198.238 118.835 202.629 116.71C202.629 116.71 204.626 117.713 206.487 114.959C208.348 112.205 205.176 109.204 205.176 109.204C205.176 109.204 202.249 111.958 194.136 108.329C186.023 104.699 183.061 101.444 180.54 101.567Z" fill="#B45181"/>
<path d="M140.774 174.395H139.18V176.524L140.774 179.903C140.774 179.903 142.902 180.277 143.037 180.277C143.173 180.277 144.899 179.903 144.899 179.903L145.432 179.027C145.432 179.027 139.577 176.894 140.774 174.395Z" fill="#E6E6F0"/>
<path d="M190.781 176.397L188.387 181.403L198.496 185.925L206.478 186.175C206.478 186.175 207.142 184.424 204.482 183.549L202.354 183.175C202.354 183.175 199.562 178.419 199.296 176.187C199.296 176.187 196.635 176.689 196.237 178.563C196.233 178.522 192.511 180.273 190.781 176.397Z" fill="#B45181"/>
<path d="M139.577 173.894L138.765 174.518L135.191 177.272L143.435 187.548C143.435 187.548 148.088 189.427 150.22 187.548C150.22 187.548 151.531 186.315 148.625 185.296C148.625 185.296 146.362 185.67 146.362 183.545C146.362 181.42 146.895 179.167 147.673 178.666C147.673 178.666 145.676 178.041 145.148 178.542C144.741 178.964 144.383 179.426 144.082 179.919C144.082 179.919 139.311 178.148 139.577 173.894Z" fill="#B45181"/>
<path opacity="0.1" d="M180.143 95.0607C180.007 95.6955 179.829 96.3216 179.609 96.935C180.3 98.4986 181.612 99.7471 183.265 100.416C184.919 101.084 186.784 101.12 188.465 100.515C188.816 100.175 189.191 99.8576 189.588 99.5657C189.588 99.5657 181.073 90.5557 180.143 95.0607Z" fill="black"/>
<path opacity="0.1" d="M179.408 111.773C179.408 111.773 183.533 116.903 189.518 117.031L179.408 111.773Z" fill="black"/>
<g opacity="0.1">
<path opacity="0.1" d="M204.058 116.796C203.974 116.774 203.892 116.745 203.813 116.71C203.685 116.773 203.554 116.832 203.42 116.887C203.636 116.883 203.85 116.852 204.058 116.796Z" fill="black"/>
<path opacity="0.1" d="M205.473 109.718C205.329 109.543 205.174 109.376 205.01 109.217C205.01 109.217 204.136 110.039 201.978 110.195C203.167 110.306 204.367 110.143 205.473 109.718Z" fill="black"/>
<path opacity="0.1" d="M192.109 117.084L192.135 117.351C193.89 117.657 195.672 117.795 197.456 117.762C195.655 117.701 193.864 117.473 192.109 117.084Z" fill="black"/>
<path opacity="0.1" d="M182.934 141.368C176.018 140.616 170.168 138.992 172.012 137.615C173.856 136.238 175.734 128.355 175.734 128.355C175.734 128.355 175.734 128.4 175.765 128.326C175.841 128.123 175.83 127.901 175.734 127.705C172.82 121.643 173.209 110.853 173.209 110.853C173.209 110.853 172.811 105.472 174.673 103.454C176.058 101.962 179.286 101.654 180.846 101.592C180.7 101.582 180.554 101.582 180.409 101.592C180.409 101.592 175.223 101.469 173.362 103.471C171.501 105.472 171.898 110.869 171.898 110.869C171.898 110.869 171.51 121.675 174.424 127.722C174.52 127.917 174.531 128.14 174.454 128.342C174.424 128.416 174.424 128.371 174.424 128.371C174.424 128.371 172.576 136.23 170.697 137.607C168.818 138.984 174.686 140.612 181.619 141.36C188.553 142.108 191.327 143.987 191.327 143.987C191.466 143.829 191.589 143.66 191.694 143.481C190.344 142.869 187.565 141.861 182.934 141.368Z" fill="black"/>
</g>
<path d="M186.259 100.692C190.078 100.692 193.175 97.7787 193.175 94.1851C193.175 90.5916 190.078 87.6784 186.259 87.6784C182.439 87.6784 179.343 90.5916 179.343 94.1851C179.343 97.7787 182.439 100.692 186.259 100.692Z" fill="#FDC2CC"/>
<path opacity="0.1" d="M196.102 91.2751C195.53 92.6233 193.821 93.1329 192.323 93.4823C190.182 93.9756 187.875 94.4606 185.826 93.6961C185.561 93.5559 185.255 93.4997 184.953 93.5358C184.709 93.6276 184.506 93.7942 184.376 94.0085C182.117 97.0337 182.484 101.066 181.899 104.724C181.715 105.863 181.405 107.038 180.588 107.889C178.998 109.533 175.996 109.472 174.533 111.219C173.567 112.37 173.558 113.968 173.567 115.436C173.567 117.001 173.553 118.567 173.524 120.134C173.497 121.162 173.445 122.226 172.951 123.139C172.112 124.684 170.243 125.42 168.517 126.016C167.442 126.394 166.332 126.776 165.179 126.674C164.026 126.571 162.872 125.852 162.724 124.766C162.518 123.295 164.13 122.267 165.24 121.207C167.014 119.517 167.743 117.059 167.809 114.684C167.871 113.724 167.723 112.763 167.372 111.86C166.966 110.927 166.241 110.142 165.804 109.221C164.458 106.385 166.118 103.105 168.106 100.622C170.094 98.1394 172.536 95.7184 172.96 92.6397C172.997 91.9735 173.098 91.3117 173.261 90.6626C173.567 89.7665 174.292 87.2921 175.092 86.7249C176.372 85.8177 177.875 85.2295 179.461 85.0149C180.689 84.8464 181.942 84.9081 183.161 84.6861C184.586 84.4272 185.909 83.7901 187.334 83.5517C190.414 83.0379 193.756 86.4042 195.106 89.0596C195.477 89.8734 196.451 90.4489 196.102 91.2751Z" fill="black"/>
<path d="M196.102 91.0243C195.53 92.3725 193.821 92.8822 192.323 93.2316C190.182 93.7248 187.875 94.2098 185.826 93.4453C185.561 93.3051 185.255 93.2489 184.953 93.285C184.709 93.3768 184.506 93.5434 184.376 93.7577C182.117 96.7829 182.484 100.815 181.899 104.473C181.715 105.612 181.405 106.788 180.588 107.638C178.998 109.283 175.996 109.221 174.533 110.968C173.567 112.119 173.558 113.718 173.567 115.185C173.567 116.75 173.553 118.316 173.524 119.883C173.497 120.911 173.445 121.975 172.951 122.888C172.112 124.433 170.243 125.169 168.517 125.765C167.442 126.143 166.332 126.526 165.179 126.423C164.026 126.32 162.872 125.601 162.724 124.516C162.518 123.044 164.13 122.017 165.24 120.956C167.014 119.267 167.743 116.809 167.809 114.433C167.871 113.473 167.723 112.512 167.372 111.609C166.966 110.676 166.241 109.891 165.804 108.97C164.458 106.134 166.118 102.854 168.106 100.371C170.094 97.8886 172.536 95.4676 172.96 92.3889C172.997 91.7227 173.098 91.061 173.261 90.4118C173.567 89.5158 174.292 87.0413 175.092 86.4741C176.372 85.567 177.875 84.9788 179.461 84.7642C180.689 84.5957 181.942 84.6573 183.161 84.4353C184.586 84.1764 185.909 83.5393 187.334 83.3009C190.414 82.7871 193.756 86.1535 195.106 88.8088C195.477 89.6226 196.451 90.1981 196.102 91.0243Z" fill="#F569BC"/>
<path d="M218.449 78.5164H333.425V186.681H218.449V78.5164Z" fill="#F7DF1E"/>
<path d="M248.686 168.908L257.485 163.897C259.184 166.729 260.727 169.126 264.431 169.126C267.983 169.126 270.22 167.818 270.22 162.738V128.174H281.024V162.878C281.024 173.404 274.471 178.197 264.894 178.197C256.253 178.197 251.237 173.984 248.69 168.904L248.686 168.908ZM286.892 167.814L295.686 163.022C298.002 166.581 301.012 169.187 306.338 169.187C310.816 169.187 313.669 167.083 313.669 164.177C313.669 160.691 310.737 159.458 305.805 157.423L303.105 156.334C295.311 153.214 290.138 149.293 290.138 141.015C290.138 133.39 296.311 127.582 305.958 127.582C312.826 127.582 317.754 129.834 321.314 135.712L312.904 140.797C311.052 137.673 309.046 136.44 305.958 136.44C302.795 136.44 300.785 138.326 300.785 140.797C300.785 143.847 302.79 145.08 307.421 146.962L310.121 148.052C319.296 151.751 324.477 155.528 324.477 164.025C324.477 173.174 316.836 178.185 306.565 178.185C296.517 178.185 290.051 173.663 286.905 167.802" fill="black"/>
<path d="M383.859 246.709C383.859 246.709 379.373 247.005 376.603 242.483C376.061 241.573 375.422 240.718 374.693 239.931C373.799 238.551 373.335 236.964 373.352 235.348C373.505 231.998 369.792 213.649 369.792 213.649C369.792 213.649 370.255 206.662 366.541 202.292C364.095 199.415 360.578 191.194 358.459 185.884C358.601 186.003 358.772 186.087 358.957 186.13L358.869 185.674H358.957L357.86 180.006C356.264 178.279 354.918 176.361 353.858 174.301L354.107 174.251L357.393 173.602C357.393 173.602 362.731 166.462 363.072 162.952H363.509H364.125C369.067 162.926 374.006 163.169 378.918 163.679C378.918 163.659 378.883 163.568 378.84 163.424C378.632 162.718 378.471 162 378.359 161.275H378.665L381.723 161.086C381.723 161.086 392.248 150.021 388.377 147.982C384.506 145.943 380.482 157.156 380.482 157.156L379.172 157.378L378.818 157.44C378.853 157.39 378.888 157.345 378.927 157.3C378.966 157.255 361.748 156.577 359.097 152.639C359.097 152.639 351.512 146.958 351.202 143.185C351.146 142.402 350.862 141.649 350.381 141.008C349.9 140.367 349.241 139.863 348.476 139.551C347.539 139.131 346.501 138.948 345.466 139.021L341.914 139.251L342.163 139.662H342.062C341.839 139.182 341.652 138.688 341.503 138.183H341.577C341.551 138.08 341.529 137.977 341.507 137.874C342.596 137.633 343.622 137.188 344.524 136.567C345.427 135.946 346.188 135.16 346.762 134.257C347.336 133.354 347.711 132.352 347.866 131.31C348.021 130.268 347.952 129.207 347.663 128.19C348.011 128.232 348.363 128.223 348.707 128.162C350.018 127.911 350.94 126.661 350.975 125.412C350.975 125.33 350.975 125.247 350.975 125.169C350.975 125.169 350.975 125.136 350.975 125.12C350.962 124.492 350.8 123.875 350.501 123.313C350.203 122.751 349.775 122.259 349.249 121.873C348.541 121.318 347.694 120.923 347.065 120.307C346.3 119.571 345.881 118.584 345.286 117.717C344.291 116.282 342.815 115.202 341.092 114.647C339.812 114.236 338.239 114.194 337.256 115.058C336.75 115.506 336.457 116.155 335.889 116.533C335.072 117.084 333.962 116.92 332.962 117.031C332.056 117.162 331.198 117.501 330.464 118.018C329.731 118.534 329.143 119.213 328.755 119.994C328.264 120.972 328.028 122.046 328.064 123.126C328.053 123.868 328.147 124.607 328.344 125.325C328.536 126.041 328.82 126.731 329.03 127.446C329.467 128.926 329.567 130.484 330.07 131.943C330.407 133.026 331.081 133.989 332.005 134.709L331.856 135.31C331.76 135.31 329.349 135.815 327.684 139.239C326.374 141.94 321.913 144.726 319.951 145.853C319.585 146.063 319.268 146.34 319.017 146.668C318.767 146.995 318.588 147.367 318.492 147.76C318.304 148.554 318.22 149.367 318.243 150.181C318.208 151.936 318.597 154.365 320.095 157.444C323.499 164.432 325.976 167.49 325.976 167.49C325.976 167.49 326.164 169.631 326.177 171.888C326.177 173.569 326.046 175.242 325.666 176.08C325.342 176.787 325.229 178.592 325.255 180.655C325.255 184.609 325.666 189.768 325.666 189.768C325.666 189.768 326.85 189.982 328.68 190.232L329.821 209.107C329.964 211.393 329.184 213.645 327.636 215.413C326.836 216.342 325.913 217.171 324.888 217.879C321.638 220.061 314.674 243.071 314.674 243.071C314.674 243.071 315.014 243.071 315.574 243.133L313.433 248.752C313.433 248.752 321.987 254.917 327.191 253.232C327.754 253.059 328.346 252.981 328.938 253.002C329.965 253.002 332.162 252.237 330.939 251.23C328.577 249.184 326.349 247.004 324.268 244.703C324.435 244.78 324.596 244.869 324.748 244.97V244.925L324.823 244.97C324.823 244.97 324.823 244.744 324.879 244.374L324.805 244.35C324.962 242.837 325.46 239.006 326.448 238.562C327.684 237.979 336.82 220.941 336.82 220.941L345.951 198.807C345.951 198.807 353.225 210.603 359.415 212.638V217.57C359.415 217.57 362.819 232.134 364.06 233.732C365.3 235.331 364.06 241.739 364.06 241.739C364.304 242.003 364.585 242.235 364.894 242.43L363.902 247.708C363.902 247.708 371.024 247.416 383.095 250.91C383.086 250.93 387.73 249.04 383.859 246.709ZM355.383 170.552L353.876 170.905L353.579 170.975C353.548 170.798 353.526 170.696 353.526 170.696C353.18 170.843 352.808 170.928 352.43 170.946C351.895 169.354 351.587 167.703 351.512 166.035C351.005 164.038 350.696 162.002 350.59 159.951C350.59 158.891 350.778 157.966 351.202 157.444L351.704 157.481L352.054 157.793L352.08 157.814L352.259 157.966L352.447 158.122L352.478 158.147L352.679 158.315L352.714 158.344L352.919 158.508L353.15 158.689L353.203 158.73L353.448 158.915L353.688 159.096L353.745 159.137L354.011 159.326L354.068 159.363L354.321 159.54L354.365 159.569L354.653 159.762L354.723 159.807L355.029 160.005H355.055L355.352 160.19L355.422 160.235L355.741 160.428L355.811 160.469L356.108 160.642L356.165 160.675L356.506 160.864L356.589 160.909L356.943 161.094H356.969L357.314 161.267L357.397 161.308L357.764 161.48L357.838 161.513L358.179 161.661L358.245 161.69L358.629 161.846L358.721 161.883L359.118 162.035C356.65 164.592 355.383 170.552 355.383 170.552Z" fill="url(#paint0_linear)"/>
<path d="M317.208 239.672L314.337 247.206C314.337 247.206 322.201 252.879 327.313 251.703C328.083 251.523 328.868 251.403 329.659 251.345C330.716 251.271 332.538 250.544 331.406 249.623C327.78 246.639 322.944 241.094 322.944 241.094L317.208 239.672Z" fill="#4F4D59"/>
<path d="M364.955 238.961L363.596 246.212C363.596 246.212 370.547 245.928 382.335 249.34C382.335 249.34 386.87 247.49 383.09 245.229C383.09 245.229 378.722 245.513 375.991 241.119C373.26 236.725 371.622 237.28 371.622 237.28L364.955 238.961Z" fill="#4F4D59"/>
<path d="M328.982 186.364L330.292 208.429C330.436 210.78 329.608 213.092 327.981 214.882C327.246 215.704 326.409 216.44 325.487 217.073C322.315 219.206 315.512 241.666 315.512 241.666C315.512 241.666 323.219 242.077 325.334 243.515C325.334 243.515 325.771 237.831 326.994 237.259C328.217 236.688 337.117 220.057 337.117 220.057L346.034 198.449C346.034 198.449 353.133 209.958 359.18 211.956V216.79C359.18 216.79 362.504 231.007 363.714 232.569C364.925 234.131 363.714 240.379 363.714 240.379C363.714 240.379 367.21 244.489 375.196 240.095C375.196 240.095 372.627 237.395 372.78 234.123C372.933 230.851 369.285 212.942 369.285 212.942C369.285 212.942 369.722 206.119 366.113 201.844C362.504 197.569 356.506 181.239 356.506 181.239L352.347 172.821L328.982 186.364Z" fill="#C48C96"/>
<g opacity="0.1">
<path opacity="0.1" d="M316.98 241.661C316.98 241.661 323.778 219.202 326.955 217.069C327.929 216.397 328.81 215.613 329.576 214.734C331.127 212.969 331.907 210.715 331.76 208.429L330.428 186.36L352.709 173.437L352.408 172.825L329.069 186.364L330.402 208.433C330.549 210.719 329.768 212.973 328.217 214.738C327.451 215.617 326.57 216.401 325.596 217.073C322.428 219.202 315.622 241.661 315.622 241.661C315.622 241.661 323.328 242.072 325.443 243.511C325.443 243.511 325.443 243.289 325.5 242.932C322.525 241.97 316.98 241.661 316.98 241.661Z" fill="black"/>
<path opacity="0.1" d="M365.182 240.383C365.182 240.383 366.393 234.127 365.182 232.573C363.972 231.02 360.648 216.794 360.648 216.794V211.952C354.605 209.962 347.502 198.445 347.502 198.445L346.977 199.736C349.026 202.794 354.492 210.381 359.293 211.96V216.794C359.293 216.794 362.618 231.011 363.828 232.573C365.038 234.135 363.828 240.383 363.828 240.383C363.828 240.383 365.514 242.381 369.237 242.11C366.454 241.892 365.182 240.383 365.182 240.383Z" fill="black"/>
</g>
<path d="M380.972 161.628L378.005 161.813L376.441 161.912V158.356L378.494 158.007L379.766 157.789C379.766 157.789 383.698 146.843 387.473 148.833C391.247 150.822 380.972 161.628 380.972 161.628Z" fill="#714B4F"/>
<path d="M333.377 132.325C333.377 132.325 331.411 139.432 330.808 143.834C330.205 148.237 344.858 144.689 344.858 144.689C344.858 144.689 339.266 138.294 342.442 134.882L333.377 132.325Z" fill="#714B4F"/>
<path d="M349.24 161.92L349.542 164.621L344.858 164.337L340.175 160.498L335.491 148.126L332.477 143.715L330.209 141.015L331.118 137.726C331.118 137.726 331.533 138.068 332.232 138.569C334.535 140.213 339.93 143.67 343.875 142.716C344.058 142.673 344.237 142.62 344.413 142.556L350.306 152.08L349.24 161.92Z" fill="#E6E6F0"/>
<path opacity="0.1" d="M332.32 136.892C332.32 136.892 329.904 137.303 328.239 140.731C326.963 143.354 322.647 146.075 320.72 147.172C320.353 147.383 320.034 147.661 319.782 147.99C319.531 148.319 319.352 148.692 319.257 149.087C318.868 150.707 318.719 153.728 320.834 158.073C324.158 164.896 326.574 167.88 326.574 167.88C326.574 167.88 327.177 174.703 326.273 176.693C325.369 178.682 326.273 189.628 326.273 189.628C326.273 189.628 342.136 192.473 347.427 189.628C352.718 186.784 351.962 175.838 351.962 175.838C351.962 175.838 356.947 185.789 358.76 186.073L357.703 180.528C357.703 180.528 351.809 174.555 351.508 166.881C351.508 166.881 349.695 159.914 351.206 158.069C351.206 158.069 376.742 160.058 378.254 158.352C378.254 158.352 361.482 157.641 358.913 153.802C358.913 153.802 351.508 148.257 351.206 144.562C351.162 143.868 350.931 143.197 350.534 142.61C350.137 142.024 349.588 141.543 348.939 141.212C347.911 140.662 346.732 140.414 345.553 140.501L342.141 140.723C342.141 140.723 348.034 150.53 347.733 151.821C347.431 153.112 348.034 163.478 348.034 163.478C348.034 163.478 341.215 149.688 338.213 148.126C335.212 146.564 331.712 140.135 331.712 140.135L332.315 136.888" fill="black"/>
<path opacity="0.1" d="M349.24 161.92L349.542 164.621L344.858 164.337L340.175 160.498L335.491 148.126L332.477 143.715L330.209 141.015L331.118 137.726C331.118 137.726 331.533 138.068 332.232 138.569L332.023 139.691C332.023 139.691 335.518 146.112 338.519 147.678C341.521 149.244 348.34 163.03 348.34 163.03C348.34 163.03 347.737 152.651 348.039 151.373C348.244 150.506 345.597 145.713 343.875 142.716C344.058 142.673 344.237 142.62 344.413 142.556L350.306 152.08L349.24 161.92Z" fill="black"/>
<path opacity="0.1" d="M378.005 161.813L376.441 161.912V158.356L378.494 158.007C377.778 158.899 377.804 160.477 378.005 161.813Z" fill="black"/>
<path d="M332.32 136.469C332.32 136.469 329.904 136.88 328.239 140.308C326.963 142.93 322.647 145.651 320.72 146.749C320.353 146.96 320.034 147.238 319.782 147.567C319.531 147.896 319.352 148.269 319.257 148.664C318.868 150.284 318.719 153.305 320.834 157.649C324.158 164.473 326.574 167.457 326.574 167.457C326.574 167.457 327.177 174.28 326.273 176.269C325.369 178.259 326.273 189.205 326.273 189.205C326.273 189.205 342.136 192.049 347.427 189.205C352.718 186.36 351.962 175.414 351.962 175.414C351.962 175.414 356.943 185.349 358.76 185.653L357.703 180.108C357.703 180.108 351.809 174.136 351.508 166.462C351.508 166.462 349.695 159.495 351.206 157.649C351.206 157.649 357.1 163.622 363.749 163.478C368.595 163.45 373.438 163.688 378.254 164.189C378.254 164.189 376.742 159.639 378.254 157.933C378.254 157.933 361.482 157.222 358.913 153.383C358.913 153.383 351.508 147.838 351.206 144.143C351.162 143.449 350.931 142.777 350.534 142.191C350.137 141.605 349.588 141.124 348.939 140.793C347.911 140.243 346.732 139.995 345.553 140.082L342.141 140.304C342.141 140.304 348.034 150.111 347.733 151.402C347.431 152.692 348.034 163.059 348.034 163.059C348.034 163.059 341.215 149.26 338.213 147.698C335.212 146.136 331.712 139.724 331.712 139.724L332.315 136.477" fill="#C48C96"/>
<path opacity="0.1" d="M328.982 151.393C328.982 151.393 332.608 162.902 334.722 164.329C336.837 165.755 349.682 173.002 353.461 171.296C353.461 171.296 354.369 175.562 353.024 176.557C353.024 176.557 338.934 176.039 338.82 175.99C338.82 175.99 329.602 174.851 328.09 170.589C326.579 166.326 324.766 159.08 324.766 159.08L328.982 151.393Z" fill="black"/>
<path d="M348.336 164.403C348.628 164.403 348.865 164.084 348.865 163.692C348.865 163.299 348.628 162.981 348.336 162.981C348.044 162.981 347.807 163.299 347.807 163.692C347.807 164.084 348.044 164.403 348.336 164.403Z" fill="#BA7855"/>
<path d="M349.843 169.376C350.135 169.376 350.372 169.058 350.372 168.665C350.372 168.273 350.135 167.954 349.843 167.954C349.551 167.954 349.315 168.273 349.315 168.665C349.315 169.058 349.551 169.376 349.843 169.376Z" fill="#BA7855"/>
<g opacity="0.1">
<path opacity="0.1" d="M327.335 189.049C327.335 189.049 326.426 178.103 327.335 176.113C328.243 174.124 327.636 167.301 327.636 167.301C327.636 167.301 325.22 164.316 321.895 157.493C319.776 153.149 319.929 150.127 320.318 148.508C320.414 148.113 320.593 147.74 320.844 147.411C321.095 147.082 321.414 146.804 321.782 146.592C323.708 145.483 328.021 142.774 329.301 140.152C330.24 138.228 331.415 137.254 332.263 136.769L332.32 136.456C332.32 136.456 329.904 136.867 328.239 140.295C326.963 142.918 322.647 145.639 320.72 146.736C320.353 146.947 320.034 147.226 319.782 147.555C319.531 147.884 319.352 148.257 319.257 148.652C318.868 150.271 318.719 153.292 320.834 157.637C324.158 164.46 326.574 167.444 326.574 167.444C326.574 167.444 327.177 174.268 326.273 176.257C325.369 178.247 326.273 189.192 326.273 189.192C326.273 189.192 337.606 191.223 344.308 190.134C337.54 190.894 327.335 189.049 327.335 189.049Z" fill="black"/>
<path opacity="0.1" d="M347.729 151.393C347.523 152.269 347.729 157.419 347.899 160.576C348.629 161.978 349.087 162.911 349.087 162.911C349.087 162.911 348.484 152.532 348.786 151.254C349.074 150.021 343.766 141.118 343.237 140.238L342.136 140.308C342.136 140.308 348.034 150.115 347.729 151.393Z" fill="black"/>
<path opacity="0.1" d="M364.807 163.334C358.157 163.478 352.264 157.506 352.264 157.506C352.087 157.737 351.958 157.998 351.883 158.274C353.631 159.803 358.437 163.589 363.749 163.474C368.595 163.446 373.438 163.684 378.254 164.185C378.254 164.185 378.223 164.09 378.175 163.93C373.734 163.498 369.271 163.299 364.807 163.334Z" fill="black"/>
<path opacity="0.1" d="M353.011 175.275C353.011 175.275 353.072 176.163 353.037 177.494C354.61 180.429 357.471 185.448 358.751 185.649L358.529 184.482C356.331 181.884 353.011 175.275 353.011 175.275Z" fill="black"/>
</g>
<path d="M357.249 173.84L354.037 174.477L351.503 174.979L352.862 171.423L353.81 171.201L355.283 170.856C355.283 170.856 357.397 160.905 361.63 161.616C365.864 162.327 357.249 173.84 357.249 173.84Z" fill="#714B4F"/>
<path opacity="0.1" d="M354.042 174.49L351.508 174.991L352.867 171.436L353.815 171.214C354.025 172.294 354.101 173.393 354.042 174.49Z" fill="black"/>
<path d="M328.982 151.11C328.982 151.11 332.608 162.619 334.722 164.045C336.837 165.471 349.682 172.718 353.461 171.012C353.461 171.012 354.369 175.279 353.024 176.274C353.024 176.274 338.934 175.756 338.82 175.706C338.82 175.706 329.602 174.568 328.09 170.305C326.579 166.043 324.766 158.796 324.766 158.796L328.982 151.11Z" fill="#C48C96"/>
<path opacity="0.1" d="M333.525 132.63C333.525 132.63 333.22 133.744 332.809 135.363C333.645 136.854 334.98 138.045 336.608 138.75C338.235 139.456 340.065 139.638 341.813 139.268C341.45 137.809 341.529 136.333 342.591 135.19L333.525 132.63Z" fill="black"/>
<path d="M339.873 139.169C344.381 139.169 348.034 135.732 348.034 131.491C348.034 127.25 344.381 123.813 339.873 123.813C335.366 123.813 331.712 127.25 331.712 131.491C331.712 135.732 335.366 139.169 339.873 139.169Z" fill="#714B4F"/>
<path opacity="0.1" d="M346.96 129.378C347.551 129.534 348.17 129.57 348.777 129.485C349.406 129.325 349.962 128.976 350.361 128.492C350.76 128.007 350.98 127.414 350.988 126.801C350.976 126.188 350.819 125.586 350.528 125.037C350.237 124.489 349.82 124.009 349.306 123.632C348.616 123.089 347.79 122.707 347.156 122.103C346.409 121.384 345.999 120.422 345.409 119.575C344.437 118.175 342.997 117.12 341.315 116.579C340.066 116.167 338.532 116.135 337.571 116.99C337.077 117.429 336.789 118.058 336.239 118.432C335.439 118.967 334.356 118.81 333.381 118.917C332.499 119.044 331.662 119.372 330.946 119.874C330.23 120.375 329.656 121.035 329.274 121.795C328.529 123.343 328.387 125.089 328.873 126.727C329.06 127.426 329.34 128.1 329.541 128.782C329.978 130.229 330.065 131.746 330.555 133.172C331.044 134.598 332.053 135.996 333.582 136.423C333.462 134.823 333.798 133.22 334.556 131.783C334.681 131.468 334.928 131.21 335.247 131.059C335.519 130.994 335.805 130.994 336.077 131.059C337.993 131.326 339.948 130.954 341.604 130.007C342.185 129.678 343.089 128.544 343.705 128.433C344.5 128.305 346.13 129.206 346.96 129.378Z" fill="black"/>
<path d="M346.96 129.095C347.551 129.25 348.17 129.286 348.777 129.202C349.406 129.041 349.962 128.693 350.361 128.208C350.76 127.724 350.98 127.13 350.988 126.517C350.976 125.905 350.819 125.302 350.528 124.754C350.237 124.205 349.82 123.725 349.306 123.348C348.616 122.806 347.79 122.424 347.156 121.819C346.409 121.1 345.999 120.138 345.409 119.291C344.437 117.891 342.997 116.837 341.315 116.295C340.066 115.884 338.532 115.851 337.571 116.706C337.077 117.146 336.789 117.775 336.239 118.149C335.439 118.683 334.356 118.527 333.381 118.634C332.499 118.76 331.662 119.088 330.946 119.59C330.23 120.092 329.656 120.752 329.274 121.511C328.529 123.06 328.387 124.806 328.873 126.443C329.06 127.142 329.34 127.816 329.541 128.499C329.978 129.945 330.065 131.462 330.555 132.889C331.044 134.315 332.053 135.712 333.582 136.14C333.465 134.54 333.805 132.939 334.565 131.503C334.69 131.189 334.937 130.931 335.256 130.78C335.528 130.714 335.813 130.714 336.086 130.78C338.002 131.047 339.957 130.674 341.612 129.728C342.193 129.399 343.098 128.264 343.714 128.153C344.5 128.022 346.13 128.922 346.96 129.095Z" fill="#503F43"/>
<path d="M428.374 103.754L421.716 173.918L391.789 181.728L361.945 173.918L355.296 103.754H428.374Z" fill="#E44D26"/>
<path d="M391.833 175.76L416.014 169.454L421.694 109.492H391.833V175.76Z" fill="#F16529"/>
<path d="M378.892 126.706H391.833V118.099H368.896L369.114 120.409L371.364 144.126H391.837V135.519H379.731L378.892 126.706ZM380.972 148.43H371.797L373.077 161.945L391.793 166.853H391.837V157.871H391.798L381.609 155.282L380.972 148.43Z" fill="#EBEBEB"/>
<path d="M362.098 84.682H366.746V89.002H370.997V84.682H375.646V97.7694H370.997V93.3878H366.746V97.7694H362.098V84.682ZM381.758 89.0225H377.664V84.682H390.5V89.0225H386.406V97.7694H381.762V89.0225H381.758ZM392.54 84.682H397.39L400.374 89.2815L403.353 84.682H408.203V97.7694H403.572V91.2832L400.374 95.9362H400.295L397.093 91.2832V97.7694H392.54V84.682ZM410.514 84.682H415.162V93.4412H421.716V97.7653H410.527V84.682H410.514Z" fill="black"/>
<path d="M391.802 144.126H403.065L402.003 155.29L391.802 157.88V166.853L410.558 161.961L410.693 160.506L412.843 137.846L413.065 135.536H391.802V144.143V144.126ZM391.802 126.686V126.706H413.9L414.083 124.77L414.52 120.405L414.739 118.095H391.802V126.682V126.686Z" fill="white"/>
<path d="M160.22 155.553C159.368 153.206 158.141 150.21 157.162 149.527C157.103 149.483 157.038 149.446 156.97 149.416H156.847V146.519L154.549 146.864C154.181 145.816 153.902 144.743 153.715 143.654C153.936 143.862 154.218 144.004 154.526 144.062C154.833 144.12 155.151 144.091 155.441 143.978C155.401 143.921 155.371 143.859 155.336 143.797L155.441 143.756C155.079 143.156 154.888 142.478 154.886 141.787C154.905 141.158 155.012 140.533 155.205 139.93C155.615 138.594 156.31 137.344 156.699 136.004C156.947 135.139 157.065 134.245 157.048 133.349C157.06 131.831 156.692 130.331 155.974 128.971C155.795 128.58 155.516 128.237 155.161 127.973C154.838 127.804 154.505 127.652 154.165 127.516C153.595 127.155 153.104 126.695 152.719 126.16C151.087 124.29 148.902 122.919 146.441 122.218C145.8 121.994 145.105 121.943 144.435 122.07C142.893 122.481 142.33 124.261 141.08 125.202C139.975 126.024 138.459 126.119 137.078 126.398C135.661 126.625 134.356 127.268 133.352 128.236C132.698 128.938 132.342 129.842 132.351 130.776C132.313 131.211 132.395 131.649 132.589 132.046C132.782 132.443 133.081 132.787 133.456 133.045C133.883 133.309 134.367 133.481 134.874 133.548C135.38 133.616 135.895 133.577 136.384 133.435C136.002 134.675 135.897 135.976 136.075 137.255C136.253 138.535 136.71 139.766 137.418 140.872C138.125 141.978 139.068 142.934 140.187 143.681C141.306 144.427 142.577 144.949 143.92 145.211L144.191 145.664C145.017 147.113 145.644 148.656 146.056 150.255C143.942 151.385 141.631 152.442 140.237 152.54C140.182 153.053 140.081 153.56 139.935 154.057C139.61 155.304 138.984 156.465 138.105 157.448C136.209 159.454 127.676 174.621 127.676 174.621C127.676 174.621 127.405 175.225 126.969 176.265C121.669 176.878 113.023 177.762 110.607 177.305L101.127 168.83C101.127 168.83 98.0684 171.029 98.3305 173.7L96.6223 172.171C96.6223 172.171 87.6136 178.637 101.839 182.858L123.482 185.222C121.42 191.075 119.498 197.886 120.092 201.594H120.271C120.685 201.593 121.098 201.563 121.507 201.503L121.468 202.161L119.384 237.276C119.384 237.276 118.908 243.741 125.308 246.643C125.308 246.643 133.133 268.276 130.049 270.73C130.049 270.73 130.416 270.911 131.032 271.166L124.596 276.509C124.596 276.509 119.856 277.623 117.248 277.401C116.789 277.342 116.324 277.444 115.941 277.688C115.557 277.931 115.282 278.299 115.168 278.721C115.168 278.766 115.168 278.811 115.142 278.86V278.918C115.142 278.963 115.142 279.012 115.142 279.062C115.142 279.111 115.142 279.099 115.142 279.115C115.142 279.132 115.142 279.197 115.142 279.239V279.292C115.142 279.341 115.142 279.387 115.173 279.436V279.489C115.187 279.541 115.205 279.592 115.225 279.641V279.691C115.247 279.74 115.273 279.789 115.299 279.839V279.872C115.33 279.921 115.36 279.97 115.395 280.02L115.426 280.061C115.464 280.113 115.506 280.165 115.553 280.217L115.588 280.258C115.636 280.311 115.688 280.361 115.745 280.414H115.771L115.946 280.554L115.985 280.583L116.199 280.726L116.252 280.759L116.501 280.895H116.54L116.807 281.018H116.846L117.156 281.138L117.222 281.162L117.567 281.269H117.624L117.995 281.359H118.026L118.462 281.438H118.545L118.982 281.499H119.065L119.568 281.544C120.542 281.614 121.857 281.639 123.377 281.635C123.377 281.635 123.377 281.672 123.377 281.688C123.377 281.705 123.377 281.771 123.377 281.812V281.865C123.377 281.914 123.377 281.96 123.408 282.009V282.062C123.423 282.114 123.44 282.165 123.46 282.214V282.264C123.482 282.313 123.508 282.362 123.535 282.412V282.445C123.565 282.494 123.596 282.543 123.631 282.593L123.661 282.634C123.699 282.686 123.741 282.738 123.788 282.79L123.823 282.831C123.871 282.884 123.923 282.934 123.98 282.987H124.002L124.177 283.127L124.216 283.156L124.43 283.3L124.483 283.332L124.727 283.468H124.767L125.033 283.591H125.073L125.383 283.711L125.448 283.735L125.793 283.842H125.85L126.222 283.933H126.252L126.689 284.011H126.772L127.209 284.072H127.292L127.794 284.118C133.959 284.566 153.632 283.226 153.632 283.226V283.172V283.106C153.829 282.243 154.772 277.224 151.417 273.513C151.517 273.414 151.614 273.311 151.705 273.204C151.705 273.204 149.084 268.967 150.521 267.631C151.959 266.295 143.579 243.306 143.579 243.306C143.579 243.306 139.075 236.614 141.683 229.03C144.291 221.447 141.447 213.197 141.447 213.197C141.447 213.197 147.673 211.463 147.786 204.257C147.786 204.039 147.786 203.813 147.786 203.587C147.917 203.605 148.048 203.613 148.18 203.612C148.267 203.618 148.354 203.618 148.442 203.612C148.442 203.612 147.258 199.596 148.678 196.698C150.098 193.8 153.182 196.476 156.026 184.655C158.084 176.101 159.893 166.265 160.74 161.476C161.088 159.492 160.91 157.457 160.22 155.553ZM106.125 180.626L103.962 178.695C104.679 178.974 105.474 179.245 106.361 179.517L114.509 180.417C110.874 180.725 107.479 180.898 106.125 180.639V180.626Z" fill="url(#paint1_linear)"/>
<path d="M126.759 179.5C126.759 179.5 109.991 181.691 106.496 181.033L97.1816 172.706C97.1816 172.706 88.3302 179.06 102.306 183.224L128.389 186.073L126.759 179.5Z" fill="#FDC2CC"/>
<path opacity="0.05" d="M126.759 179.5C126.759 179.5 109.991 181.691 106.496 181.033L97.1816 172.706C97.1816 172.706 88.3302 179.06 102.306 183.224L128.389 186.073L126.759 179.5Z" fill="black"/>
<path d="M93.9355 185.029L57.6999 175.575L49.6262 90.3667H138.354L130.272 175.562L93.9355 185.029Z" fill="#264DE4"/>
<path d="M123.351 170.141L130.258 97.3378H93.9967V177.782L123.351 170.141Z" fill="#2965F1"/>
<path d="M68.159 128.926L69.1551 139.375H94.0141V128.926H68.159ZM66.1581 107.774L67.1673 118.223H94.0098V107.774H66.1362H66.1581ZM94.0098 156.067H93.9617L81.589 152.922L80.7982 144.587H69.627L71.1823 160.995L93.9355 166.951H93.9879L94.0098 156.067Z" fill="#EBEBEB"/>
<path d="M70.5095 67.2006H83.9613V72.4947H76.1323V77.7889H83.9613V83.0831H70.5095V67.2006ZM86.6744 67.2006H100.126V71.8042H92.2797V72.7249H100.109V83.3132H86.6526V78.4794H94.4816V77.5587H86.6526V67.2006H86.6744ZM102.839 67.2006H116.291V71.8042H108.423V72.7249H116.252V83.3132H102.796V78.4794H110.625V77.5587H102.796V67.2006H102.839Z" fill="black"/>
<path d="M119.773 128.926L121.778 107.774H93.9355V118.223H109.589L108.58 128.91H93.9355V139.358H107.615L106.304 152.922L93.9355 156.075V166.947L116.706 161.008L116.872 159.24L119.494 131.725L119.764 128.918L119.773 128.926Z" fill="white"/>
<path d="M132.819 268.457L124.666 275.247C124.666 275.247 120.009 276.345 117.449 276.123C114.889 275.901 113.722 279.847 119.777 280.287C125.833 280.726 145.161 279.411 145.161 279.411C145.161 279.411 147.022 272.399 141.434 268.457H132.819Z" fill="#47465A"/>
<path opacity="0.05" d="M132.819 268.457L124.666 275.247C124.666 275.247 120.009 276.345 117.449 276.123C114.889 275.901 113.722 279.847 119.777 280.287C125.833 280.726 145.161 279.411 145.161 279.411C145.161 279.411 147.022 272.399 141.434 268.457H132.819Z" fill="black"/>
<path opacity="0.3" d="M145.449 276.382C145.435 277.181 145.337 277.977 145.156 278.758C145.156 278.758 125.828 280.073 119.773 279.633C116.859 279.423 115.623 278.4 115.404 277.422C115.138 278.548 116.195 280.032 119.773 280.299C125.828 280.739 145.156 279.423 145.156 279.423C145.384 278.424 145.482 277.403 145.449 276.382Z" fill="white"/>
<path d="M142.36 144.245C142.36 144.245 147.485 151.036 145.619 155.639C143.754 160.243 155.401 150.818 155.401 150.818C155.401 150.818 151.675 144.657 153.54 138.08L142.36 144.245Z" fill="#FDC2CC"/>
<path d="M140.962 271.088L132.819 277.878C132.819 277.878 128.161 278.975 125.601 278.753C123.041 278.531 121.875 282.477 127.93 282.917C133.985 283.357 153.313 282.042 153.313 282.042C153.313 282.042 155.174 275.029 149.586 271.088H140.962Z" fill="#47465A"/>
<path d="M143.304 269.554C142.089 270.964 140.377 271.507 138.585 271.589C134.514 271.77 130.031 269.554 130.031 269.554C133.059 267.146 125.374 245.891 125.374 245.891C119.087 243.042 119.55 236.688 119.55 236.688L121.586 202.202L122.102 193.537L128.624 189.813L133.762 193.512L138.638 197.031C138.956 198.15 139.16 199.295 139.25 200.451C139.818 208.503 133.05 210.398 133.05 210.398C133.05 210.398 135.846 218.504 133.282 225.956C130.717 233.408 135.143 239.98 135.143 239.98C135.143 239.98 143.527 262.768 142.133 264.083C140.739 265.399 143.304 269.554 143.304 269.554Z" fill="#565171"/>
<path opacity="0.05" d="M143.304 269.554C142.089 270.964 140.377 271.507 138.585 271.589C134.514 271.77 130.031 269.554 130.031 269.554C133.059 267.146 125.374 245.891 125.374 245.891C119.087 243.042 119.55 236.688 119.55 236.688L121.586 202.202L122.102 193.537L128.624 189.813L133.762 193.512L138.638 197.031C138.956 198.15 139.16 199.295 139.25 200.451C139.818 208.503 133.05 210.398 133.05 210.398C133.05 210.398 135.846 218.504 133.282 225.956C130.717 233.408 135.143 239.98 135.143 239.98C135.143 239.98 143.527 262.768 142.133 264.083C140.739 265.399 143.304 269.554 143.304 269.554Z" fill="black"/>
<path d="M151.443 272.181C147.485 276.781 138.171 272.181 138.171 272.181C138.358 272.018 138.498 271.813 138.577 271.585C140.285 267.216 132.814 246.327 132.814 246.327C126.527 243.478 125.824 236.688 125.824 236.688L124.177 201.577L123.963 197.031L133.762 193.512L136.772 192.431L146.799 199.662C147.23 201.159 147.441 202.705 147.428 204.257C147.301 211.331 141.198 213.041 141.198 213.041C141.198 213.041 143.994 221.147 141.43 228.599C138.865 236.051 143.304 242.603 143.304 242.603C143.304 242.603 151.688 265.391 150.294 266.706C148.901 268.021 151.443 272.181 151.443 272.181Z" fill="#565171"/>
<path opacity="0.1" d="M147.428 204.257C145.414 203.986 141.338 201.704 139.245 200.467C138.446 199.995 137.935 199.678 137.935 199.678C137.935 199.678 135.837 194.199 130.25 198.363C128.432 199.752 126.379 200.844 124.177 201.593C123.336 201.874 122.468 202.079 121.586 202.206L122.102 193.541L128.624 189.817L133.762 193.517L136.772 192.436L146.799 199.662C147.23 201.159 147.441 202.705 147.428 204.257Z" fill="black"/>
<path d="M160.032 162.212C159.202 166.914 157.411 176.598 155.401 184.979C152.605 196.591 149.578 193.961 148.184 196.809C146.79 199.657 147.953 203.599 147.953 203.599C145.624 203.817 137.939 199 137.939 199C137.939 199 135.842 193.521 130.254 197.685C124.666 201.848 120.241 201.626 120.241 201.626C119.074 194.396 127.694 175.114 127.694 175.114C127.694 175.114 136.078 160.214 137.939 158.262C138.803 157.297 139.418 156.158 139.739 154.932C139.882 154.445 139.981 153.947 140.036 153.445C143.064 153.227 150.521 148.405 150.521 148.405L156.345 147.53V150.378C156.414 150.407 156.479 150.444 156.537 150.489C157.494 151.176 158.722 154.102 159.539 156.408C160.208 158.275 160.377 160.269 160.032 162.212Z" fill="#E1A0A7"/>
<path d="M132.819 182.789L129.808 182.46L106.736 179.94C92.7559 175.776 101.612 169.422 101.612 169.422L110.926 177.749C113.613 178.255 124.155 177.075 128.878 176.516C130.293 176.343 131.189 176.228 131.189 176.228L132.819 182.789Z" fill="#FDC2CC"/>
<path opacity="0.1" d="M155.401 153.21C155.401 153.21 149.346 148.611 140.246 163.507C131.145 178.403 129.066 175.994 129.066 175.994C129.066 175.994 130.927 182.571 129.996 183.882C129.996 183.882 136.283 183.442 138.612 183.882C140.94 184.322 155.38 167.231 155.38 167.231C155.38 167.231 162.855 157.592 155.401 153.21Z" fill="black"/>
<path opacity="0.1" d="M155.17 152.335C155.17 152.335 149.115 147.735 140.032 162.631C130.949 177.527 128.852 175.119 128.852 175.119C128.852 175.119 136.069 182.567 138.398 183.006C140.726 183.446 155.165 166.355 155.165 166.355C155.165 166.355 162.623 156.716 155.17 152.335Z" fill="black"/>
<path opacity="0.1" d="M129.804 182.472C129.9 180.848 129.249 177.996 128.874 176.516C130.289 176.343 131.185 176.228 131.185 176.228L132.814 182.805L129.804 182.472Z" fill="black"/>
<path d="M155.401 152.77C155.401 152.77 149.346 148.171 140.246 163.071C131.145 177.971 129.066 175.558 129.066 175.558C129.066 175.558 130.927 182.135 129.996 183.446C129.996 183.446 136.283 183.006 138.612 183.446C140.94 183.886 155.38 166.795 155.38 166.795C155.38 166.795 162.855 157.152 155.401 152.77Z" fill="#E1A0A7"/>
<path opacity="0.1" d="M153.789 138.528L142.592 144.657C143.066 145.303 143.503 145.973 143.902 146.662C144.547 146.785 145.202 146.847 145.86 146.847C148.844 146.847 150.229 143.9 152.033 141.915C151.902 140.336 153.274 140.295 153.789 138.528Z" fill="black"/>
<path d="M145.619 146.42C151.022 146.42 155.401 142.299 155.401 137.217C155.401 132.134 151.022 128.014 145.619 128.014C140.217 128.014 135.838 132.134 135.838 137.217C135.838 142.299 140.217 146.42 145.619 146.42Z" fill="#FDC2CC"/>
<path opacity="0.1" d="M133.256 129.773C134.242 128.821 135.524 128.188 136.917 127.964C138.275 127.689 139.765 127.607 140.849 126.789C142.076 125.864 142.627 124.105 144.143 123.71C144.801 123.586 145.484 123.637 146.113 123.858C148.532 124.546 150.678 125.893 152.282 127.73C152.661 128.257 153.145 128.71 153.706 129.066C154.041 129.199 154.367 129.348 154.685 129.514C155.033 129.774 155.306 130.112 155.48 130.496C156.572 132.571 156.823 134.948 156.188 137.184C155.808 138.503 155.126 139.728 154.72 141.043C154.314 142.359 154.213 143.847 154.951 145.022C154.235 145.368 153.331 144.932 152.881 144.303C152.431 143.674 152.295 142.901 152.059 142.174C151.595 140.746 150.721 139.466 149.534 138.475C148.8 137.866 147.489 137.455 146.978 138.24C146.782 138.544 146.795 138.935 146.624 139.251C146.292 139.872 145.314 139.995 144.689 139.662C144.074 139.263 143.641 138.66 143.479 137.973C142.522 134.919 140.884 132.999 137.415 134.302C136.104 134.788 134.597 135.125 133.352 134.302C131.757 133.201 132.076 131.018 133.256 129.773Z" fill="black"/>
<path d="M133.256 129.551C134.242 128.599 135.524 127.966 136.917 127.742C138.275 127.467 139.765 127.385 140.849 126.567C142.076 125.642 142.627 123.883 144.143 123.488C144.801 123.364 145.484 123.415 146.113 123.636C148.532 124.324 150.678 125.671 152.282 127.508C152.661 128.035 153.145 128.489 153.706 128.844C154.041 128.977 154.367 129.126 154.685 129.292C155.033 129.552 155.306 129.89 155.48 130.274C156.572 132.349 156.823 134.726 156.188 136.962C155.808 138.281 155.126 139.506 154.72 140.822C154.314 142.137 154.213 143.625 154.951 144.8C154.235 145.146 153.331 144.71 152.881 144.081C152.431 143.452 152.295 142.679 152.059 141.952C151.595 140.524 150.721 139.244 149.534 138.253C148.8 137.644 147.489 137.233 146.978 138.018C146.782 138.322 146.795 138.713 146.624 139.029C146.292 139.65 145.314 139.773 144.689 139.44C144.074 139.041 143.641 138.438 143.479 137.751C142.522 134.697 140.884 132.778 137.415 134.081C136.104 134.566 134.597 134.903 133.352 134.081C131.757 132.983 132.076 130.8 133.256 129.551Z" fill="#8F5A6A"/>
<path opacity="0.05" d="M156.524 150.473H151.793C151.793 150.473 142.478 154.854 142.247 154.637C142.089 154.489 140.648 154.743 139.735 154.92C139.878 154.433 139.977 153.935 140.032 153.432C143.059 153.214 150.517 148.393 150.517 148.393L156.341 147.517V150.366C156.406 150.394 156.468 150.43 156.524 150.473Z" fill="black"/>
<path opacity="0.3" d="M153.597 279.008C153.583 279.807 153.485 280.603 153.304 281.384C153.304 281.384 133.976 282.699 127.921 282.26C125.007 282.05 123.771 281.026 123.552 280.048C123.286 281.174 124.343 282.658 127.921 282.925C133.976 283.365 153.304 282.05 153.304 282.05C153.532 281.051 153.63 280.03 153.597 279.008Z" fill="white"/>
<g opacity="0.05">
<path opacity="0.05" d="M128.039 197.467C124.898 199.81 122.119 200.755 120.293 201.166C120.293 201.33 120.328 201.491 120.354 201.647C120.354 201.647 124.78 201.865 130.368 197.705C131.233 197.007 132.257 196.504 133.36 196.234C132.141 195.67 130.403 195.707 128.039 197.467Z" fill="black"/>
<path opacity="0.05" d="M159.644 156.388C158.809 154.082 157.599 151.159 156.642 150.469C156.583 150.424 156.519 150.387 156.45 150.358C156.45 150.358 154.523 150.419 154.589 150.469C155.546 151.155 156.481 153.864 157.315 156.166C157.991 158.037 158.165 160.036 157.822 161.986C156.992 166.688 155.2 176.372 153.191 184.753C150.395 196.365 147.367 193.734 145.973 196.583C144.829 198.918 145.401 201.984 145.65 203.016C146.403 203.37 147.229 203.568 148.07 203.595C148.07 203.595 146.904 199.653 148.302 196.805C149.7 193.956 152.728 196.587 155.519 184.975C157.542 176.574 159.32 166.89 160.15 162.208C160.494 160.258 160.32 158.259 159.644 156.388Z" fill="black"/>
</g>
<path d="M186.709 197.315C187.51 196.7 188.093 195.872 188.382 194.939C188.601 193.993 188.172 192.863 187.211 192.518C186.137 192.131 184.988 192.83 184.118 193.541C183.249 194.252 182.248 195.058 181.108 194.906C181.694 194.406 182.132 193.772 182.38 193.065C182.629 192.359 182.678 191.603 182.523 190.874C182.474 190.571 182.338 190.287 182.13 190.051C181.532 189.451 180.453 189.71 179.736 190.183C177.464 191.687 176.831 194.589 176.818 197.204C176.59 196.262 176.783 195.28 176.774 194.326C176.765 193.373 176.486 192.271 175.621 191.77C175.084 191.498 174.482 191.364 173.873 191.379C172.851 191.342 171.715 191.441 171.016 192.144C170.142 193.015 170.374 194.483 171.129 195.432C171.885 196.381 173.03 196.994 174.087 197.66C174.934 198.134 175.657 198.781 176.202 199.555C176.266 199.662 176.318 199.775 176.359 199.892H182.759C184.193 199.204 185.522 198.337 186.709 197.315Z" fill="#6C63FF"/>
<path d="M198.466 274.495C199.484 273.603 200.44 272.551 200.737 271.273C201.035 269.994 200.453 268.457 199.152 267.984C197.697 267.458 196.137 268.395 194.957 269.369C193.778 270.344 192.423 271.425 190.881 271.219C191.676 270.541 192.27 269.682 192.606 268.724C192.942 267.765 193.009 266.742 192.799 265.752C192.731 265.344 192.547 264.96 192.266 264.643C191.458 263.82 189.99 264.178 189.024 264.819C185.966 266.874 185.092 270.792 185.071 274.335C184.76 273.056 185.023 271.725 185.014 270.414C185.005 269.102 184.625 267.651 183.45 266.944C182.718 266.574 181.895 266.393 181.064 266.418C179.679 266.369 178.137 266.5 177.193 267.454C176.018 268.638 176.32 270.623 177.346 271.926C178.373 273.229 179.924 274.047 181.353 274.947C182.5 275.59 183.478 276.469 184.214 277.516C184.302 277.663 184.373 277.817 184.428 277.977H193.109C195.053 277.049 196.855 275.877 198.466 274.495Z" fill="#6C63FF"/>
</g>
<defs>
<linearGradient id="paint0_linear" x1="351.32" y1="253.52" x2="351.32" y2="114.363" gradientUnits="userSpaceOnUse">
<stop stop-color="#808080" stop-opacity="0.25"/>
<stop offset="0.54" stop-color="#808080" stop-opacity="0.12"/>
<stop offset="1" stop-color="#808080" stop-opacity="0.1"/>
</linearGradient>
<linearGradient id="paint1_linear" x1="25360.5" y1="126167" x2="25360.5" y2="62060.9" gradientUnits="userSpaceOnUse">
<stop stop-color="#808080" stop-opacity="0.25"/>
<stop offset="0.54" stop-color="#808080" stop-opacity="0.12"/>
<stop offset="1" stop-color="#808080" stop-opacity="0.1"/>
</linearGradient>
<clipPath id="clip0">
<rect width="450" height="300" fill="white"/>
</clipPath>
</defs>
</svg>
