<svg width="1558" height="210" viewBox="0 0 1558 210" fill="none" xmlns="http://www.w3.org/2000/svg">
<path d="M424.346 51.48L424.421 51.532L424.509 51.5544C425.28 51.7497 426.034 51.9204 426.757 52.0833L426.862 52.1068C427.55 52.2616 428.207 52.4097 428.835 52.5677C430.158 52.9006 431.308 53.2687 432.254 53.8029C456.839 67.6881 479.866 85.724 502.512 104.249C506.421 107.446 510.318 110.658 514.21 113.865C532.858 129.234 551.385 144.502 570.427 157.563C616.481 189.152 665.659 207.906 727.18 184.112C772.256 166.679 814.084 129.005 854.121 92.9455L854.193 92.8807C874.235 74.8285 893.831 57.1804 913.187 42.6384C932.545 28.0952 951.63 16.6839 970.641 11.084C1030.03 -6.40807 1076.27 0.328557 1114.78 18.5337C1153.31 36.7505 1184.11 66.4623 1212.58 94.9949C1214.41 96.8231 1216.22 98.6466 1218.03 100.462C1244.39 126.949 1269.04 151.72 1296.33 164.196C1310.93 170.871 1326.29 174.036 1343.08 172.071C1359.87 170.107 1378.05 163.022 1398.28 149.252C1462.83 105.329 1502.6 106.525 1526.14 125.46C1537.94 134.954 1545.74 148.96 1550.55 164.177C1555.3 179.216 1557.12 195.403 1557.01 209.5H-0.137636C66.0172 94.2085 163.757 48.9456 249.157 35.3775C291.955 28.578 331.652 29.7396 362.714 34.0403C378.244 36.1907 391.611 39.1251 402.123 42.239C412.649 45.357 420.272 48.6434 424.346 51.48Z" fill="#5A5779 " />
</svg>
