<svg width="709" height="531" viewBox="0 0 709 531" fill="none" xmlns="http://www.w3.org/2000/svg">
<path d="M665.705 37.3378H52.828V432.678H665.705V37.3378Z" fill="#3F3D56"/>
<path d="M648.277 108.719H372.337V432.312H648.277V108.719Z" fill="#F2F2F2"/>
<path d="M28.0958 410.555C36.4829 426.237 54.2833 432.969 54.2833 432.969C54.2833 432.969 58.4856 414.276 50.0985 398.594C41.7114 382.912 23.911 376.18 23.911 376.18C23.911 376.18 19.7088 394.874 28.0958 410.555Z" fill="#3F3D56"/>
<path d="M33.8606 405.396C49.0027 414.581 54.8345 432.824 54.8345 432.824C54.8345 432.824 36.116 436.176 20.9738 426.992C5.83174 417.807 0 399.564 0 399.564C0 399.564 18.7185 396.212 33.8606 405.396Z" fill="#1ADEF9"/>
<path d="M633.028 138.828H465.67V145.632H633.028V138.828Z" fill="white"/>
<path d="M633.028 153.796H465.67V160.6H633.028V153.796Z" fill="white"/>
<path d="M522.355 168.764H465.67V175.568H522.355V168.764Z" fill="white"/>
<path d="M289.363 343.088H122.005V349.891H289.363V343.088Z" fill="white"/>
<path d="M289.363 358.056H122.005V364.859H289.363V358.056Z" fill="white"/>
<path d="M178.691 373.024H122.005V379.827H178.691V373.024Z" fill="white"/>
<path d="M593.815 222.289H426.457V229.093H593.815V222.289Z" fill="white"/>
<path d="M593.815 237.257H426.457V244.061H593.815V237.257Z" fill="white"/>
<path d="M593.815 251.899H426.457V258.703H593.815V251.899Z" fill="white"/>
<path d="M593.815 266.542H426.457V273.345H593.815V266.542Z" fill="white"/>
<path d="M593.815 281.184H426.457V287.987H593.815V281.184Z" fill="white"/>
<path d="M593.815 295.826H426.457V302.63H593.815V295.826Z" fill="white"/>
<path d="M593.815 310.468H426.457V317.272H593.815V310.468Z" fill="white"/>
<path d="M593.815 325.111H426.457V331.914H593.815V325.111Z" fill="white"/>
<path d="M593.815 339.753H426.457V346.556H593.815V339.753Z" fill="white"/>
<path d="M593.815 354.395H426.457V361.199H593.815V354.395Z" fill="white"/>
<path d="M593.815 369.037H426.457V375.841H593.815V369.037Z" fill="white"/>
<path d="M266.667 234.906C266.677 244.072 264.649 253.124 260.732 261.396C256.815 269.668 251.109 276.949 244.033 282.705C241.416 284.848 238.625 286.766 235.689 288.438C233.917 289.452 232.095 290.373 230.228 291.198C224.042 293.95 217.442 295.635 210.702 296.183C209.046 296.322 207.374 296.391 205.684 296.388C202.341 296.392 199.004 296.115 195.707 295.561C194.545 295.378 193.398 295.151 192.265 294.887C190.285 294.443 188.329 293.896 186.405 293.248C178.494 290.588 171.21 286.316 165.005 280.699C163.406 279.271 161.891 277.75 160.466 276.145C153.827 268.744 149.074 259.824 146.618 250.157C144.163 240.489 144.079 230.364 146.374 220.656C148.668 210.949 153.272 201.95 159.788 194.438C166.304 186.925 174.536 181.125 183.773 177.538C193.01 173.951 202.974 172.686 212.805 173.85C222.636 175.015 232.038 178.574 240.199 184.222C248.359 189.87 255.034 197.436 259.645 206.266C264.257 215.096 266.667 224.926 266.667 234.906Z" fill="#1ADEF9"/>
<path d="M448.09 166.319C448.177 185.998 436.604 192.92 422.291 192.984C421.959 192.985 421.628 192.983 421.299 192.977C420.635 192.966 419.979 192.938 419.329 192.895C406.408 192.03 396.339 184.852 396.259 166.551C396.175 147.612 420.079 123.604 421.872 121.829L421.875 121.827C421.943 121.759 421.978 121.725 421.978 121.725C421.978 121.725 448.004 146.643 448.09 166.319Z" fill="#1ADEF9"/>
<path d="M421.335 189.978L430.755 176.584L421.318 191.444L421.299 192.977C420.636 192.966 419.979 192.938 419.329 192.895L420.264 173.203L420.255 173.051L420.273 173.022L420.361 171.162L410.77 156.349L420.384 169.768L420.41 170.162L421.116 155.285L412.893 139.971L421.204 152.67L421.872 121.828L421.874 121.726L421.875 121.827L421.848 146.147L429.923 136.469L421.822 148.241L421.666 161.561L429.193 148.746L421.645 163.519L421.558 170.925L432.484 153.085L421.527 173.509L421.335 189.978Z" fill="#3F3D56"/>
<path d="M665.342 210.482C638.38 210.482 612.521 221.281 593.456 240.503C574.391 259.724 563.68 285.794 563.68 312.978C563.68 320.939 560.543 328.574 554.96 334.203C549.376 339.832 541.804 342.995 533.908 342.995H484.529C472.895 342.995 461.375 345.305 450.626 349.794C439.878 354.282 430.112 360.861 421.885 369.155C413.659 377.449 407.133 387.295 402.681 398.132C398.229 408.968 395.937 420.583 395.938 432.312L665.342 432.312L665.342 210.482Z" fill="#3F3D56"/>
<path d="M365.439 37.3378H352.368V432.678H365.439V37.3378Z" fill="#3E3D54"/>
<path d="M232.189 31.4808V21.2312C232.186 15.6026 229.965 10.2056 226.017 6.22673C222.068 2.24786 216.713 0.0127563 211.13 0.0127563C205.547 0.0127563 200.193 2.24786 196.244 6.22673C192.295 10.2056 190.075 15.6026 190.072 21.2312V31.4808H150.133V54.1763H272.128V31.4808H232.189ZM211.13 5.85687C213.572 5.85687 215.959 6.58682 217.989 7.95439C220.019 9.32197 221.601 11.2657 222.535 13.5399C223.47 15.8141 223.714 18.3166 223.238 20.7309C222.762 23.1451 221.586 25.3628 219.859 27.1034C218.133 28.844 215.933 30.0293 213.539 30.5096C211.144 30.9898 208.662 30.7433 206.406 29.8013C204.151 28.8593 202.223 27.2641 200.866 25.2174C199.51 23.1706 198.786 20.7644 198.786 18.3028C198.786 16.6684 199.105 15.0499 199.725 13.5399C200.346 12.0299 201.255 10.6579 202.401 9.5022C203.548 8.34649 204.909 7.42973 206.406 6.80426C207.904 6.1788 209.509 5.85687 211.13 5.85687Z" fill="#1ADEF9"/>
<path d="M216.513 230.849C216.513 230.849 210.447 248.254 214.18 250.931C217.912 253.609 201.582 275.477 201.582 275.477L181.986 270.122L192.717 251.824C192.717 251.824 194.117 233.526 194.117 230.849C194.117 228.171 216.513 230.849 216.513 230.849Z" fill="#FFB8B8"/>
<path opacity="0.1" d="M216.513 230.849C216.513 230.849 210.447 248.254 214.18 250.931C217.912 253.609 201.582 275.477 201.582 275.477L181.986 270.122L192.717 251.824C192.717 251.824 194.117 233.526 194.117 230.849C194.117 228.171 216.513 230.849 216.513 230.849Z" fill="black"/>
<path d="M204.118 243.791C212.919 243.791 220.054 236.598 220.054 227.725C220.054 218.851 212.919 211.658 204.118 211.658C195.317 211.658 188.183 218.851 188.183 227.725C188.183 236.598 195.317 243.791 204.118 243.791Z" fill="#FFB8B8"/>
<path d="M192.265 294.888C190.285 294.443 188.329 293.896 186.405 293.248L189.455 272.163L190.399 265.662L195.235 267.492C195.888 267.734 196.629 268.019 197.479 268.334C198.128 268.59 198.823 268.709 199.52 268.684C200.217 268.659 200.901 268.49 201.531 268.187C206.207 266.028 208.988 257.623 208.988 257.623C208.988 257.623 209.177 259.98 209.424 263.97C209.867 270.977 210.506 283.027 210.702 296.183C209.046 296.322 207.374 296.391 205.684 296.388C202.341 296.392 199.004 296.115 195.707 295.561C194.545 295.378 193.398 295.151 192.265 294.888Z" fill="#D0CDE1"/>
<path d="M196.593 254.951L195.235 267.492L194.574 273.561L192.265 294.888C190.285 294.443 188.329 293.896 186.405 293.248C178.494 290.588 171.21 286.316 165.005 280.699L162.064 270.12C162.08 269.489 162.143 268.86 162.253 268.239C162.252 268.235 162.253 268.231 162.254 268.227C162.255 268.223 162.257 268.22 162.26 268.217C162.347 267.663 162.468 267.115 162.623 266.577C162.627 266.57 162.629 266.562 162.63 266.555C163.151 264.541 164.176 262.696 165.608 261.196C169.151 257.623 192.606 246.466 192.606 246.466L193.049 247.403L196.593 254.951Z" fill="#D0CDE1"/>
<path d="M203.779 205.018C207.312 204.891 211.092 204.828 214.071 206.747C215.441 207.711 216.643 208.897 217.628 210.258C220.529 213.955 223.035 218.607 221.958 223.195L220.706 222.703C220.706 223.927 220.976 225.136 221.497 226.243C221.32 225.726 220.73 226.561 220.888 227.084L222.267 231.644C221.697 231.467 221.097 231.413 220.505 231.484C219.913 231.556 219.343 231.752 218.831 232.06C218.319 232.368 217.877 232.781 217.533 233.272C217.19 233.763 216.952 234.322 216.836 234.911C216.679 229.615 216.134 223.541 211.872 220.44C209.723 218.876 207.003 218.398 204.386 217.974C201.972 217.583 199.441 217.21 197.129 218.011C194.816 218.813 192.847 221.197 193.371 223.605C192.82 223.48 192.243 223.549 191.736 223.801C191.229 224.053 190.823 224.472 190.586 224.989C190.139 226.038 189.944 227.178 190.015 228.317C188.879 229.127 187.585 227.519 187.122 226.195C186.035 223.09 185.069 219.784 185.654 216.543C186.24 213.303 188.859 210.207 192.126 210.196C191.729 209.757 191.518 209.179 191.536 208.586L194.228 208.356C193.545 208.259 192.916 207.924 192.45 207.411C193.531 208.61 202.031 205.081 203.779 205.018Z" fill="#3E3D54"/>
<path d="M240.859 266.555C240.445 269.901 238.078 279.352 235.689 288.438C233.917 289.452 232.095 290.373 230.228 291.198C224.042 293.95 217.442 295.635 210.702 296.183C209.046 296.322 207.374 296.391 205.684 296.388C202.341 296.392 199.004 296.115 195.707 295.561C196.941 290.758 198.604 282.844 200.158 275.091C200.63 272.748 201.095 270.413 201.531 268.187C203.237 259.417 204.559 252.271 204.559 252.271C204.559 252.271 209.86 247.029 213.004 245.814C213.43 245.623 213.897 245.544 214.362 245.587C216.954 246.019 220.498 252.271 220.498 252.271C220.498 252.271 236.401 257.616 240.119 263.685C240.684 264.528 240.946 265.541 240.859 266.555Z" fill="#D0CDE1"/>
<path d="M173.574 266.555L172.644 286.585C169.946 284.831 167.392 282.863 165.005 280.699C163.406 279.271 161.891 277.75 160.466 276.145C161.229 272.77 161.868 269.93 162.253 268.239C162.252 268.235 162.253 268.231 162.254 268.227C162.255 268.223 162.257 268.22 162.26 268.217C162.463 267.28 162.594 266.701 162.623 266.577C162.627 266.57 162.629 266.563 162.63 266.555H173.574Z" fill="#D0CDE1"/>
<path d="M244.033 282.705C241.416 284.848 238.625 286.766 235.689 288.438C233.917 289.452 232.095 290.373 230.228 291.198L228.464 280.831L230.236 261.196L240.119 263.685L240.859 263.875L244.033 282.705Z" fill="#D0CDE1"/>
<path d="M663.023 317.138C663.023 317.138 656.127 351.131 667.621 348.041C679.115 344.95 674.517 315.593 674.517 315.593L663.023 317.138Z" fill="#A0616A"/>
<path d="M695.207 176.532H687.544C687.544 176.532 679.115 182.712 679.881 189.665C680.648 196.618 666.088 256.878 666.088 264.604C666.088 272.33 663.023 274.647 663.023 279.283C663.023 283.918 664.556 287.008 663.023 289.326C661.491 291.644 658.426 305.55 659.192 310.958C659.637 314.549 659.637 318.182 659.192 321.774H678.349C678.349 321.774 692.142 274.647 695.207 272.33C698.272 270.012 699.805 266.149 699.805 263.831C699.805 261.514 698.272 261.514 702.103 258.423C705.935 255.333 703.636 241.427 703.636 241.427L709 227.521L695.207 176.532Z" fill="#D0CDE1"/>
<path opacity="0.1" d="M695.207 176.532H687.544C687.544 176.532 679.115 182.712 679.881 189.665C680.648 196.618 666.088 256.878 666.088 264.604C666.088 272.33 663.023 274.647 663.023 279.283C663.023 283.918 664.556 287.008 663.023 289.326C661.491 291.644 658.426 305.55 659.192 310.958C659.637 314.549 659.637 318.182 659.192 321.774H678.349C678.349 321.774 692.142 274.647 695.207 272.33C698.272 270.012 699.805 266.149 699.805 263.831C699.805 261.514 698.272 261.514 702.103 258.423C705.935 255.333 703.636 241.427 703.636 241.427L709 227.521L695.207 176.532Z" fill="black"/>
<path d="M587.928 298.21C587.928 298.21 581.031 332.203 592.526 329.113C604.02 326.023 599.422 296.665 599.422 296.665L587.928 298.21Z" fill="#A0616A"/>
<path d="M590.227 456.585L585.629 475.9L602.487 486.715L607.085 463.539L590.227 456.585Z" fill="#A0616A"/>
<path d="M669.92 480.535L661.491 492.123L671.452 503.712H685.245V480.535H669.92Z" fill="#A0616A"/>
<path d="M687.544 493.669H682.946C680.671 493.202 678.326 493.202 676.05 493.669C671.452 494.441 665.214 487.005 665.214 487.005L659.192 492.124C659.192 492.124 646.931 495.214 653.062 509.893L666.855 518.391C666.855 518.391 673.751 533.07 687.544 530.752C701.337 528.434 691.376 512.983 691.376 512.983L687.544 493.669Z" fill="#3E3D54"/>
<path d="M590.227 466.629L589.061 461.483L578.732 464.311C578.732 464.311 557.277 450.405 557.277 468.947C557.277 487.488 574.135 493.669 574.135 493.669C574.135 493.669 580.265 492.896 580.265 498.304C580.265 503.712 596.357 512.21 602.487 509.12C608.617 506.03 608.617 498.304 608.617 498.304L607.085 476.672L600.188 478.218C600.188 478.218 587.162 477.445 589.46 474.355C591.759 471.265 590.227 466.629 590.227 466.629Z" fill="#3E3D54"/>
<path d="M612.449 288.94C612.449 288.94 603.253 301.301 603.253 308.254C603.253 315.207 600.188 377.012 600.188 377.012C600.188 377.012 583.33 455.813 587.928 460.449C592.525 465.084 606.318 472.037 608.617 469.719C610.916 467.402 627.008 383.192 627.008 383.192L646.165 331.431L663.789 405.597C663.789 405.597 663.023 469.719 666.088 470.492C669.153 471.264 670.686 472.037 669.153 475.127C667.621 478.218 665.322 484.398 665.322 484.398C665.322 484.398 684.479 489.033 688.31 485.943C692.142 482.853 692.908 407.914 688.31 381.647C683.713 355.38 689.077 295.12 689.077 295.12L612.449 288.94Z" fill="#3E3D54"/>
<path d="M640.418 139.449C653.114 139.449 663.406 129.072 663.406 116.272C663.406 103.472 653.114 93.0949 640.418 93.0949C627.722 93.0949 617.43 103.472 617.43 116.272C617.43 129.072 627.722 139.449 640.418 139.449Z" fill="#A0616A"/>
<path d="M633.521 130.951C633.521 130.951 636.587 147.174 633.521 151.81C630.456 156.445 674.901 153.355 674.901 153.355C674.901 153.355 653.445 128.633 655.744 123.997C658.042 119.362 633.521 130.951 633.521 130.951Z" fill="#A0616A"/>
<path d="M613.981 157.604C613.981 157.604 629.307 137.517 648.464 141.38C653.636 142.423 658.361 143.466 662.504 144.433C677.101 147.84 689.239 158.328 694.225 172.572C695.518 176.266 696.165 179.815 695.59 182.712C693.291 194.301 694.441 285.849 694.441 285.849C694.441 285.849 688.311 288.167 689.077 291.257C689.843 294.348 695.207 298.21 689.843 298.21C684.479 298.21 603.253 295.12 604.786 292.802C606.319 290.485 613.981 157.604 613.981 157.604Z" fill="#D0CDE1"/>
<path d="M621.644 157.604H613.981C613.981 157.604 605.552 163.784 606.319 170.738C607.085 177.691 592.526 237.951 592.526 245.676C592.526 253.402 589.46 255.719 589.46 260.355C589.46 264.99 590.993 268.08 589.46 270.398C587.928 272.716 584.863 286.622 585.629 292.03C586.075 295.621 586.075 299.255 585.629 302.846H604.786C604.786 302.846 618.579 255.719 621.644 253.402C624.709 251.084 626.242 247.221 626.242 244.904C626.242 242.586 624.709 242.586 628.541 239.496C632.372 236.405 630.073 222.499 630.073 222.499L635.437 208.593L621.644 157.604Z" fill="#D0CDE1"/>
<path opacity="0.1" d="M610.473 291.783L633.521 240.654L621.997 295.03L610.473 291.783Z" fill="black"/>
<path d="M632.398 81.2228L632.411 79.3103C633.994 79.1072 635.6 79.1639 637.166 79.4783C637.184 78.3238 636.946 77.1799 636.471 76.1294C638.049 76.3388 639.583 76.7994 641.018 77.494L641.546 73.9418L655.271 78.7911C660.198 80.5319 665.405 82.4702 668.602 86.6307C672.167 91.2691 672.425 97.7594 671.057 103.463C669.689 109.166 666.905 114.406 664.828 119.887C664.071 122.228 663.094 124.49 661.912 126.644C657.764 133.386 648.398 135.792 641.06 132.928C638.351 131.871 635.794 130.109 634.422 127.528C633.719 125.927 633.121 124.282 632.632 122.602C631.357 119.196 629.495 112.07 626.399 110.196C625.037 109.371 622.959 112.912 621.783 111.835C618.76 109.067 618.742 104.229 619.938 100.292C621.066 96.3475 622.476 92.4899 624.155 88.7498C624.876 87.2407 632.4 80.9934 632.398 81.2228Z" fill="#3E3D54"/>
</svg>
